# Blender 3.3.1
# www.blender.org
mtllib CigaretteBoxClosed.mtl
o CigaretteBoxClosed
v -0.058993 -0.204215 0.134494
v -0.058993 0.204215 0.134494
v -0.058993 -0.204215 -0.134494
v -0.058993 0.204215 -0.134494
v 0.058993 -0.204215 0.134494
v 0.058993 0.204215 0.134494
v 0.058993 -0.204215 -0.134494
v 0.058993 0.204215 -0.134494
vn -1.0000 -0.0000 -0.0000
vn -0.0000 -0.0000 -1.0000
vn 1.0000 -0.0000 -0.0000
vn -0.0000 -0.0000 1.0000
vn -0.0000 -1.0000 -0.0000
vn -0.0000 1.0000 -0.0000
vt 0.823932 0.000057
vt 0.324862 0.000038
vt 0.504686 0.007190
vt 0.823932 0.999943
vt 0.324861 0.999962
vt 0.824037 0.759832
vt 0.410230 0.008058
vt 0.504686 0.999365
vt 0.509440 0.000057
vt 0.509440 0.999942
vt 0.410230 1.001248
vt 0.507272 0.759832
vt 0.410695 0.000038
vt 0.000057 0.000057
vt 0.411254 0.008217
vt 0.000057 0.999942
vt 0.410695 0.999962
vt 0.824037 0.994582
vt 0.320702 0.000057
vt 0.320062 0.008058
vt 0.411254 1.000392
vt 0.507272 0.994582
vt 0.320062 1.001248
vt 0.320702 0.999943
s 0
usemtl cigaretteBox
f 2/4/1 3/9/1 1/1/1
f 4/11/2 7/20/2 3/7/2
f 8/24/3 5/14/3 7/19/3
f 6/17/4 1/2/4 5/13/4
f 7/21/5 1/3/5 3/8/5
f 4/12/6 6/18/6 8/22/6
f 2/4/1 4/10/1 3/9/1
f 4/11/2 8/23/2 7/20/2
f 8/24/3 6/16/3 5/14/3
f 6/17/4 2/5/4 1/2/4
f 7/21/5 5/15/5 1/3/5
f 4/12/6 2/6/6 6/18/6
