# Blender 3.3.1
# www.blender.org
mtllib filing_cabinet.mtl
o filing_cabinet
v -1.000000 0.001274 1.000000
v -1.000000 4.998204 1.000000
v -1.000000 0.001274 -1.000000
v -1.000000 4.998204 -1.000000
v 1.000000 0.001274 1.000000
v 1.000000 4.998204 1.000000
v 1.000000 0.001274 -1.000000
v 1.000000 4.998204 -1.000000
v -0.828934 0.456347 1.124522
v -0.828934 1.733105 1.124522
v -0.884221 0.413770 0.998568
v -0.884221 1.775682 0.998568
v 0.828934 0.456347 1.124522
v 0.828934 1.733105 1.124522
v 0.829661 1.961450 0.998568
v 0.884221 1.775682 0.998568
v -0.828934 1.962007 1.124522
v -0.828934 3.238765 1.124522
v 0.829661 3.239327 0.998568
v -0.884221 3.281342 0.998568
v 0.828934 1.962007 1.124522
v 0.828934 3.238765 1.124522
v 0.884221 1.919429 0.998568
v 0.884221 3.281342 0.998568
v -0.828934 3.476832 1.124522
v -0.828934 4.753591 1.124522
v -0.829661 3.239327 0.998568
v -0.884221 4.796168 0.998568
v 0.828934 3.476832 1.124522
v 0.828934 4.753591 1.124522
v 0.884221 3.434255 0.998568
v 0.884221 4.796168 0.998568
v -1.000000 1.740946 1.000000
v -1.000000 1.740946 -1.000000
v 1.000000 1.740946 -1.000000
v 1.000000 1.740946 1.000000
v -1.000000 0.463952 -1.000000
v 1.000000 0.463952 -1.000000
v 1.000000 0.463952 1.000000
v -1.000000 0.463952 1.000000
v -0.833333 0.001274 -1.000000
v -0.833333 4.998204 -1.000000
v -0.833333 0.001274 1.000000
v -0.833333 4.998204 1.000000
v -0.833333 1.740946 1.000000
v -0.833333 0.463952 1.000000
v 0.814815 4.998204 -1.000000
v 0.814815 0.001274 1.000000
v 0.814815 0.001274 -1.000000
v 0.814815 4.998204 1.000000
v 0.814815 1.740946 1.000000
v 0.814815 0.463952 1.000000
v 0.814815 1.740946 -0.962497
v -0.833333 1.740946 -0.962497
v 0.814815 0.463952 -0.962497
v -0.833333 0.463952 -0.962497
v -1.000000 3.240999 1.000000
v -1.000000 3.240999 -1.000000
v 1.000000 3.240999 -1.000000
v 1.000000 3.240999 1.000000
v -0.833333 3.240999 1.000000
v 0.814815 3.240999 1.000000
v -1.000000 1.971311 -1.000000
v 1.000000 1.971311 -1.000000
v 1.000000 1.971311 1.000000
v -0.833333 1.971311 1.000000
v 0.814815 1.971311 1.000000
v -1.000000 1.971311 1.000000
v -1.000000 3.471872 1.000000
v -1.000000 3.471872 -1.000000
v 1.000000 3.471872 -1.000000
v 1.000000 3.471872 1.000000
v -0.833333 3.471872 1.000000
v 0.814815 3.471872 1.000000
v -1.000000 4.748091 1.000000
v -1.000000 4.748091 -1.000000
v 1.000000 4.748091 -1.000000
v 1.000000 4.748091 1.000000
v -0.833333 4.748091 1.000000
v 0.814815 4.748091 1.000000
v 0.814815 3.240999 -0.960895
v -0.833333 3.240999 -0.960895
v -0.833333 1.971311 -0.960895
v 0.814815 1.971311 -0.960895
v -0.833333 4.748091 -0.960895
v -0.833333 3.471872 -0.960895
v 0.814815 4.748091 -0.960895
v 0.814815 3.471872 -0.960895
v 0.829661 1.733667 0.998568
v 0.884221 0.413949 0.998568
v -0.884221 1.919609 0.998568
v -0.829661 0.455790 0.998568
v -0.884221 3.434435 0.998568
v -0.829661 1.733667 0.998568
v -0.829661 4.754153 0.998568
v 0.829661 4.754153 0.998568
v 0.829661 3.476275 0.998568
v -0.829661 3.476444 0.998568
v -0.829661 1.961618 0.998568
v 0.829661 0.455959 0.998568
v 0.829661 3.476275 -0.945239
v -0.829661 3.476444 -0.945239
v 0.829661 1.961450 -0.945239
v -0.829661 1.961618 -0.945239
v 0.829661 0.455959 -0.945239
v -0.829661 0.455790 -0.945239
v 0.829661 1.733667 -0.945239
v -0.829661 3.239327 -0.945239
v -0.829661 4.754153 -0.945239
v 0.829661 4.754153 -0.945239
v 0.829661 3.239327 -0.945239
v -0.829661 1.733667 -0.945239
v -0.809876 4.754469 0.975391
v 0.809876 4.754469 0.975391
v -0.809876 3.239644 0.975391
v 0.809876 3.239644 0.975391
v -0.809876 1.733984 0.975391
v 0.809876 1.733984 0.975391
v -0.809876 4.754469 -0.922062
v 0.809876 4.754469 -0.922062
v -0.809876 3.239644 -0.922062
v 0.809876 3.239644 -0.922062
v -0.809876 1.733984 -0.922062
v 0.809876 1.733984 -0.922062
v -0.809876 3.516413 0.975391
v 0.809876 3.516413 0.975391
v -0.809876 2.001588 0.975391
v 0.809876 2.001588 0.975391
v -0.809876 0.495928 0.975391
v 0.809876 0.495928 0.975391
v -0.809876 3.516413 -0.922062
v 0.809876 3.516413 -0.922062
v -0.809876 2.001588 -0.922062
v 0.809876 2.001588 -0.922062
v -0.809876 0.495928 -0.922062
v 0.809876 0.495928 -0.922062
v -0.238420 3.973749 1.124522
v 0.371936 3.973749 1.124522
v 0.371936 3.903812 1.124522
v -0.244778 3.900633 1.124522
v -0.246809 2.445519 1.124522
v 0.366902 2.445520 1.124522
v 0.366902 2.381499 1.124522
v -0.242762 2.380947 1.124522
v -0.223608 0.945921 1.124522
v 0.372442 0.945921 1.124522
v 0.372442 0.879693 1.124522
v -0.223609 0.879693 1.124522
v -0.228024 0.945921 1.124522
v -0.238420 3.973749 1.260774
v 0.371936 3.973749 1.260774
v 0.371936 3.903812 1.260774
v -0.244778 3.900633 1.260774
v -0.246809 2.445519 1.260774
v 0.366902 2.445520 1.260774
v 0.366902 2.381499 1.260774
v -0.242762 2.380947 1.260774
v -0.223608 0.945921 1.260774
v 0.372442 0.945921 1.260774
v 0.372442 0.879693 1.260774
v -0.223609 0.879693 1.260774
vn -0.0000 0.7071 0.7071
vn -0.7071 -0.0000 0.7071
vn 0.3015 -0.3015 0.9045
vn -0.4407 0.4788 0.7593
vn -0.6648 -0.6369 -0.3904
vn -0.4407 -0.4788 0.7593
vn -0.6649 -0.6366 -0.3907
vn -0.4407 -0.4793 0.7590
vn 0.6649 -0.6366 -0.3907
vn 0.4407 0.4788 0.7593
vn 0.4407 -0.4793 0.7590
vn -0.3015 -0.3015 0.9045
vn -0.6648 0.6369 -0.3904
vn 0.6648 0.6369 -0.3904
vn 0.4407 -0.4788 0.7593
vn 0.6648 -0.6369 -0.3904
vn -0.3022 -0.3220 0.8972
vn -0.2965 -0.2733 0.9151
vn 0.3015 0.3015 0.9045
vn 0.7071 -0.0000 -0.7071
vn -0.0000 -0.7071 -0.7071
vn -0.7071 -0.0000 -0.7071
vn -0.5774 -0.5774 0.5774
vn -0.0000 -0.7071 0.7071
vn -0.3015 0.3015 0.9045
vn 0.5774 0.5774 -0.5774
vn -0.0000 0.7071 -0.7071
vn 0.5774 -0.5774 0.5774
vn 0.5774 0.5774 0.5774
vn 0.7071 -0.0000 0.7071
vn -0.5774 -0.5774 -0.5774
vn -0.5774 0.5774 0.5774
vn -0.3041 0.3019 -0.9035
vn -0.3015 -0.3015 -0.9045
vn 0.3015 -0.3015 -0.9045
vn 0.5787 0.5745 -0.5789
vn 0.3041 0.3019 -0.9035
vn 0.5773 -0.5774 -0.5773
vn -0.5774 -0.5773 -0.5774
vn -0.5787 0.5745 -0.5789
vn 0.5774 -0.5773 -0.5774
vn -0.5773 -0.5774 -0.5773
vn -0.2952 0.9082 0.2968
vn -0.2952 0.9082 -0.2968
vn 0.2953 0.9082 -0.2968
vn 0.2953 0.9082 0.2968
vn -0.2953 0.9082 0.2968
vn -0.5774 0.5774 -0.5774
vn -0.2953 0.9082 -0.2968
vn 0.2952 0.9082 0.2968
vn 0.2952 0.9082 -0.2968
vn -0.3025 0.3300 0.8942
vn -0.2994 0.2812 0.9118
vn 0.5773 0.5774 0.5774
vn -0.5968 0.5606 0.5741
vn -0.0000 -0.0000 1.0000
vn 0.3032 -0.3016 0.9039
vn -0.6028 -0.5556 0.5727
vn -0.5495 0.5994 0.5820
vn 0.5787 -0.5757 0.5776
vn -0.5571 -0.5937 0.5807
vn -0.5773 0.5774 0.5774
vn -0.5774 -0.5773 0.5774
vn 0.5776 -0.5771 0.5774
vn 0.3018 -0.3015 0.9044
vn 0.5774 -0.5774 -0.5774
vt 0.000000 0.000000
vt 0.528486 0.751759
vt 0.000000 1.000000
vt 0.528486 0.751759
vt 0.000157 0.000000
vt 0.527344 0.000000
vt 0.528486 0.998446
vt 0.000157 1.000000
vt 0.527344 1.000000
vt 0.528486 0.998446
vt 0.533226 0.000000
vt 0.996247 0.751759
vt 0.000000 0.000000
vt 0.996247 0.751759
vt 0.533226 1.000000
vt 0.000000 1.000000
vt 0.996247 0.998446
vt 0.527344 0.000000
vt 0.996247 0.998446
vt 0.527344 1.000000
vt 0.536355 0.007150
vt 0.536355 0.403247
vt 0.531043 0.003059
vt 0.531043 0.407338
vt 0.993804 0.007150
vt 0.993804 0.403247
vt 0.997249 0.007033
vt 0.535699 0.406672
vt 0.999116 0.407338
vt 0.542291 0.011123
vt 0.542291 0.402359
vt 0.535699 0.744352
vt 0.997249 0.406449
vt 0.536979 0.406449
vt 0.991937 0.011123
vt 0.991937 0.402359
vt 0.997249 0.007033
vt 0.997249 0.406449
vt 0.539370 0.006267
vt 0.539370 0.400785
vt 0.536979 0.406449
vt 0.535699 0.744352
vt 0.534059 0.404876
vt 0.991631 0.006267
vt 0.991631 0.400785
vt 0.996943 0.002177
vt 0.996943 0.404876
vt 0.820696 0.749708
vt 0.000000 0.348148
vt 0.000157 0.348148
vt 0.527344 0.348148
vt 0.527344 0.348148
vt 0.533226 0.348148
vt 0.678400 0.749869
vt 0.000000 0.348148
vt 0.000157 0.092593
vt 0.527344 0.092593
vt 0.527344 0.092593
vt 0.943799 0.749869
vt 0.533226 0.092593
vt 0.000000 0.092593
vt 0.565140 0.749708
vt 0.000000 0.092593
vt 0.044089 0.000000
vt 0.567466 0.998446
vt 0.044089 1.000000
vt 0.567466 0.998446
vt 0.044436 0.000000
vt 0.953499 0.733059
vt 0.567466 0.751759
vt 0.044436 1.000000
vt 0.567466 0.751759
vt 0.573060 0.734506
vt 0.533214 0.994701
vt 0.044436 0.348148
vt 0.820696 0.665210
vt 0.532232 0.752478
vt 0.575160 0.590142
vt 0.565140 0.665210
vt 0.532232 0.752478
vt 0.044436 0.092593
vt 0.953499 0.661951
vt 0.533214 0.748279
vt 0.478530 1.000000
vt 0.952936 0.998446
vt 0.561200 0.733059
vt 0.952936 0.751759
vt 0.483854 0.000000
vt 0.478530 0.000000
vt 0.952936 0.998446
vt 0.952936 0.751759
vt 0.967522 0.734506
vt 0.483854 1.000000
vt 0.997423 0.752478
vt 0.954288 0.590142
vt 0.678400 0.664286
vt 0.533214 0.994701
vt 0.483854 0.348148
vt 0.533214 0.748279
vt 0.561200 0.661951
vt 0.943799 0.664286
vt 0.483854 0.092593
vt 0.997423 0.752478
vt 0.997719 0.995573
vt 0.997423 0.998398
vt 0.997884 0.994701
vt 0.997884 0.994701
vt 0.532911 0.995573
vt 0.532232 0.998398
vt 0.997719 0.752713
vt 0.997423 0.998398
vt 0.997884 0.748279
vt 0.997884 0.748279
vt 0.532911 0.752713
vt 0.532232 0.998398
vt 0.000000 0.648343
vt 0.000157 0.648343
vt 0.527344 0.648343
vt 0.527344 0.648343
vt 0.533226 0.648343
vt 0.000000 0.648343
vt 0.532527 0.995106
vt 0.044436 0.648343
vt 0.562189 0.592674
vt 0.532232 0.752478
vt 0.972310 0.592674
vt 0.997423 0.752478
vt 0.483854 0.648343
vt 0.532527 0.995106
vt 0.000157 0.394249
vt 0.527344 0.394249
vt 0.527344 0.394250
vt 0.533226 0.394249
vt 0.000000 0.394249
vt 0.532232 0.752478
vt 0.044436 0.394249
vt 0.575160 0.666466
vt 0.532527 0.749140
vt 0.532527 0.749140
vt 0.954288 0.666466
vt 0.483854 0.394249
vt 0.997423 0.752478
vt 0.000000 0.394250
vt 0.000000 0.694546
vt 0.634632 0.741855
vt 0.000157 0.694546
vt 0.527344 0.694546
vt 0.527344 0.694546
vt 0.905771 0.746145
vt 0.533226 0.694546
vt 0.000000 0.694546
vt 0.634632 0.665154
vt 0.530916 0.755227
vt 0.562189 0.665231
vt 0.044436 0.694546
vt 0.532007 0.749479
vt 0.532007 0.749479
vt 0.483854 0.694546
vt 0.972310 0.665231
vt 0.905771 0.664218
vt 0.995254 0.755227
vt 0.000000 0.949947
vt 0.890032 0.741855
vt 0.000157 0.949947
vt 0.527344 0.949947
vt 0.527344 0.949947
vt 0.533226 0.949947
vt 0.650371 0.746145
vt 0.000000 0.949947
vt 0.044436 0.949947
vt 0.532007 0.998300
vt 0.573060 0.662306
vt 0.530916 0.755227
vt 0.890032 0.665154
vt 0.967522 0.662306
vt 0.995254 0.755227
vt 0.483854 0.949947
vt 0.650371 0.664218
vt 0.532007 0.998300
vt 0.998502 0.995511
vt 0.997423 0.998177
vt 0.996975 0.995106
vt 0.532717 0.995511
vt 0.532232 0.998177
vt 0.996975 0.995106
vt 0.532232 0.998177
vt 0.532717 0.753106
vt 0.996975 0.749140
vt 0.998502 0.753106
vt 0.997423 0.998177
vt 0.996975 0.749140
vt 0.530916 0.997268
vt 0.532717 0.996822
vt 0.996643 0.998300
vt 0.532717 0.753823
vt 0.996643 0.749479
vt 0.530916 0.997268
vt 0.995254 0.997268
vt 0.996938 0.996822
vt 0.996643 0.998300
vt 0.996938 0.753823
vt 0.996643 0.749479
vt 0.995254 0.997268
vt 0.535909 0.744438
vt 0.999116 0.407338
vt 0.999116 0.003059
vt 0.536979 0.007033
vt 0.531043 0.003059
vt 0.535909 0.408308
vt 0.534059 0.002177
vt 0.535909 0.744438
vt 0.531043 0.407338
vt 0.534059 0.404876
vt 0.535323 0.743932
vt 0.535323 0.743932
vt 0.996943 0.404876
vt 0.535323 0.405308
vt 0.996943 0.002177
vt 0.535323 0.405317
vt 0.534059 0.002177
vt 0.535699 0.406682
vt 0.536979 0.007033
vt 0.999116 0.003059
vt 0.535909 0.408317
vt 0.996447 0.405308
vt 0.999054 0.746844
vt 0.529437 0.746864
vt 0.996447 0.405317
vt 1.000141 0.743443
vt 0.995276 0.406672
vt 0.529545 0.743462
vt 0.995276 0.406682
vt 0.999137 0.744566
vt 0.998586 0.408317
vt 0.530355 0.744546
vt 0.998586 0.408308
vt 0.999137 0.996360
vt 0.998586 0.744438
vt 0.529545 0.996410
vt 0.995276 0.744352
vt 0.529437 0.996250
vt 0.996447 0.743932
vt 0.999054 0.996250
vt 0.996447 0.743932
vt 1.000141 0.996410
vt 0.995276 0.744352
vt 0.530355 0.996360
vt 0.998586 0.744438
vt 0.536612 0.999063
vt 0.534059 0.404876
vt 0.536612 0.743950
vt 0.536612 0.999063
vt 0.536612 0.743950
vt 0.996943 0.404876
vt 0.536979 0.406449
vt 0.536987 0.744370
vt 0.536987 0.999483
vt 0.536987 0.999483
vt 0.536987 0.744370
vt 0.997249 0.406449
vt 0.531043 0.407338
vt 0.537197 0.744455
vt 0.537197 0.999569
vt 0.537197 0.999569
vt 0.537197 0.744455
vt 0.999116 0.407338
vt 0.995158 0.999063
vt 0.531718 0.996286
vt 0.995158 0.743950
vt 0.996773 0.996286
vt 0.995158 0.999063
vt 0.995158 0.743950
vt 0.993987 0.999483
vt 0.993987 0.744370
vt 0.531826 0.996446
vt 0.997860 0.996446
vt 0.993987 0.744370
vt 0.993987 0.999483
vt 0.997298 0.999569
vt 0.997298 0.744455
vt 0.532636 0.996397
vt 0.996856 0.996397
vt 0.997298 0.744455
vt 0.997298 0.999569
vt 0.536612 0.407540
vt 0.536612 0.744813
vt 0.534059 0.404876
vt 0.536612 0.744813
vt 0.536612 0.407540
vt 0.996943 0.404876
vt 0.536987 0.408904
vt 0.536979 0.406449
vt 0.536987 0.746177
vt 0.536987 0.408904
vt 0.997249 0.406449
vt 0.536987 0.746177
vt 0.537197 0.410540
vt 0.537197 0.747813
vt 0.531043 0.407338
vt 0.537197 0.410540
vt 0.537197 0.747813
vt 0.999116 0.407338
vt 0.995158 0.744813
vt 0.531718 0.751472
vt 0.995158 0.407540
vt 0.996773 0.751472
vt 0.995158 0.744813
vt 0.995158 0.407540
vt 0.993987 0.408904
vt 0.531826 0.748070
vt 0.993987 0.746177
vt 0.993987 0.408904
vt 0.997860 0.748070
vt 0.993987 0.746177
vt 0.997298 0.410540
vt 0.997298 0.747813
vt 0.532636 0.749174
vt 0.997298 0.410540
vt 0.997298 0.747813
vt 0.996856 0.749174
vt 0.700460 0.159814
vt 0.866964 0.159814
vt 0.866964 0.138204
vt 0.698726 0.137222
vt 0.700174 0.159286
vt 0.866625 0.159286
vt 0.866625 0.139668
vt 0.701272 0.139499
vt 0.703380 0.159034
vt 0.867846 0.159034
vt 0.867846 0.138487
vt 0.703380 0.138487
vt 0.702162 0.159034
vt 0.700460 0.159814
vt 0.866964 0.159814
vt 0.866964 0.138204
vt 0.698726 0.137222
vt 0.700174 0.159286
vt 0.866625 0.159286
vt 0.866625 0.139668
vt 0.701272 0.139499
vt 0.703380 0.159034
vt 0.867846 0.159034
vt 0.867846 0.138487
vt 0.703380 0.138487
s 1
usemtl filing_cabinet
f 44/71/1 75/162/2 79/170/3
f 10/22/4 11/23/5 9/21/6
f 18/31/4 91/207/7 17/30/8
f 90/206/9 14/26/10 13/25/11
f 148/332/12 9/21/6 13/25/11
f 11/23/5 13/25/11 9/21/6
f 12/24/13 14/26/10 16/29/14
f 24/38/14 21/35/15 23/37/16
f 21/35/15 144/328/17 17/30/8
f 23/37/16 17/30/8 91/207/7
f 20/34/13 22/36/10 24/38/14
f 26/40/4 93/210/7 25/39/8
f 32/47/14 29/44/15 31/46/16
f 140/324/18 25/39/8 29/44/15
f 31/46/16 25/39/8 93/210/7
f 28/43/13 30/45/10 32/47/14
f 45/76/3 40/62/2 46/79/19
f 38/58/20 49/89/21 37/56/22
f 37/57/22 1/1/23 40/63/2
f 46/81/19 1/1/23 43/68/24
f 52/100/25 43/69/24 48/86/24
f 50/91/1 8/19/26 47/85/27
f 46/83/19 54/107/28 45/74/3
f 50/92/1 79/172/3 80/175/12
f 6/15/29 80/177/12 78/167/30
f 43/70/24 3/7/31 41/65/21
f 36/54/30 52/101/25 39/59/30
f 39/60/30 48/88/24 5/11/28
f 53/104/23 56/114/29 55/110/32
f 52/103/25 56/115/29 46/80/19
f 45/77/3 53/105/23 51/94/12
f 51/97/12 55/112/32 52/99/25
f 60/120/30 67/141/25 65/133/30
f 79/173/3 87/198/23 80/176/12
f 61/123/3 68/143/2 66/136/19
f 66/136/19 33/49/2 45/75/3
f 67/140/25 45/78/3 51/95/12
f 65/133/30 51/98/12 36/53/30
f 72/150/30 62/128/12 60/120/30
f 74/159/25 61/124/3 62/126/12
f 73/155/19 57/116/2 61/123/3
f 78/168/30 74/160/25 72/149/30
f 67/142/25 83/186/29 66/135/19
f 79/174/3 69/145/2 73/152/19
f 81/180/23 83/187/29 84/189/32
f 87/199/23 86/195/29 88/201/32
f 61/125/3 81/181/23 62/127/12
f 80/179/12 88/202/32 74/157/25
f 73/156/19 85/194/28 79/171/3
f 74/161/25 86/197/29 73/153/19
f 62/129/12 84/191/32 67/139/25
f 66/138/19 82/185/28 61/122/3
f 32/47/14 95/213/33 28/43/13
f 16/29/14 94/212/33 12/24/13
f 93/210/7 95/213/33 98/220/34
f 97/217/35 110/244/36 96/215/37
f 98/219/34 101/225/38 97/217/35
f 99/221/34 103/230/38 15/28/35
f 93/210/7 97/218/35 31/46/16
f 32/47/14 97/218/35 96/216/37
f 12/24/13 92/208/34 11/23/5
f 90/206/9 89/205/37 16/29/14
f 24/38/14 27/41/33 20/34/13
f 91/207/7 27/41/33 99/222/34
f 91/207/7 15/27/35 23/37/16
f 90/206/9 92/208/34 100/223/35
f 24/38/14 15/27/35 19/33/37
f 110/243/36 102/227/39 109/241/40
f 111/245/36 104/231/39 108/239/40
f 112/247/40 105/233/41 106/235/42
f 94/211/33 106/236/42 92/209/34
f 92/209/34 105/234/41 100/224/35
f 112/248/40 124/283/43 107/238/36
f 111/246/36 116/259/44 19/32/37
f 27/42/33 104/232/39 99/221/34
f 100/224/35 107/238/36 89/204/37
f 15/28/35 111/246/36 19/32/37
f 95/214/33 102/228/39 98/219/34
f 107/238/36 118/265/44 89/204/37
f 113/249/45 131/303/29 119/267/46
f 119/268/46 132/306/32 120/270/47
f 120/271/47 126/288/48 114/252/49
f 94/211/33 123/280/50 112/248/40
f 110/244/36 119/269/46 120/272/47
f 27/41/33 116/260/44 115/255/45
f 27/42/33 121/274/50 108/240/40
f 96/216/37 113/250/45 95/213/33
f 95/214/33 119/269/46 109/242/40
f 108/240/40 122/277/47 111/246/36
f 94/212/33 118/266/44 117/261/51
f 110/244/36 114/253/49 96/215/37
f 128/294/48 133/309/29 127/291/26
f 126/289/48 131/305/29 125/285/26
f 130/300/48 135/315/29 129/297/26
f 114/254/49 125/287/26 113/250/45
f 117/263/51 135/316/29 123/279/50
f 121/275/50 134/313/32 122/276/47
f 124/284/43 130/301/48 118/264/44
f 116/260/44 127/292/26 115/255/45
f 122/278/47 128/296/48 116/258/44
f 123/281/50 136/320/32 124/282/43
f 118/266/44 129/299/26 117/261/51
f 115/257/45 133/311/29 121/273/50
f 137/321/52 138/322/19 30/45/10
f 141/325/53 155/339/54 142/326/19
f 141/325/53 142/326/19 22/36/10
f 144/328/17 154/338/55 141/325/53
f 145/329/25 146/330/19 14/26/10
f 149/333/56 148/332/12 145/329/25
f 139/323/57 153/337/58 140/324/18
f 145/329/25 159/343/29 146/330/19
f 150/334/59 152/336/60 151/335/54
f 157/341/61 155/339/54 154/338/55
f 158/342/62 161/345/63 160/344/28
f 158/342/62 160/344/28 159/343/29
f 146/330/19 160/344/28 147/331/3
f 140/324/18 150/334/59 137/321/52
f 137/321/52 151/335/54 138/322/19
f 142/326/19 156/340/64 143/327/65
f 147/331/3 161/345/63 148/332/12
f 138/322/19 152/336/60 139/323/57
f 143/327/65 157/341/61 144/328/17
f 148/332/12 158/342/62 145/329/25
f 39/61/30 7/18/66 38/58/20
f 44/71/1 2/3/32 75/162/2
f 10/22/4 12/24/13 11/23/5
f 18/31/4 20/34/13 91/207/7
f 90/206/9 16/29/14 14/26/10
f 13/25/11 146/330/19 147/331/3
f 147/331/3 148/332/12 13/25/11
f 11/23/5 90/206/9 13/25/11
f 12/24/13 10/22/4 14/26/10
f 24/38/14 22/36/10 21/35/15
f 21/35/15 142/326/19 143/327/65
f 144/328/17 141/325/53 17/30/8
f 21/35/15 143/327/65 144/328/17
f 23/37/16 21/35/15 17/30/8
f 20/34/13 18/31/4 22/36/10
f 26/40/4 28/43/13 93/210/7
f 32/47/14 30/45/10 29/44/15
f 29/44/15 138/322/19 139/323/57
f 139/323/57 140/324/18 29/44/15
f 31/46/16 29/44/15 25/39/8
f 28/43/13 26/40/4 30/45/10
f 45/76/3 33/48/2 40/62/2
f 42/66/27 47/84/27 76/164/22
f 47/84/27 8/20/26 77/166/20
f 77/166/20 71/148/20 76/164/22
f 71/148/20 59/119/20 70/146/22
f 77/166/20 76/164/22 47/84/27
f 76/164/22 4/8/48 42/66/27
f 63/130/22 58/117/22 64/132/20
f 58/117/22 70/146/22 59/119/20
f 70/146/22 76/164/22 71/148/20
f 64/132/20 35/52/20 63/130/22
f 35/52/20 38/58/20 34/50/22
f 64/132/20 58/117/22 59/119/20
f 3/5/31 37/56/22 41/64/21
f 37/56/22 34/50/22 38/58/20
f 41/64/21 37/56/22 49/89/21
f 34/50/22 63/130/22 35/52/20
f 38/58/20 7/18/66 49/89/21
f 69/144/2 75/162/2 70/147/22
f 75/162/2 2/3/32 76/165/22
f 70/147/22 75/162/2 76/165/22
f 2/3/32 4/9/48 76/165/22
f 70/147/22 58/118/22 69/144/2
f 58/118/22 63/131/22 57/116/2
f 69/144/2 58/118/22 57/116/2
f 68/143/2 57/116/2 63/131/22
f 63/131/22 34/51/22 68/143/2
f 34/51/22 37/57/22 33/49/2
f 68/143/2 34/51/22 33/49/2
f 40/63/2 33/49/2 37/57/22
f 37/57/22 3/6/31 1/1/23
f 46/81/19 40/63/2 1/1/23
f 52/100/25 46/82/19 43/69/24
f 47/85/27 42/67/27 50/91/1
f 42/67/27 4/10/48 44/72/1
f 50/91/1 42/67/27 44/72/1
f 4/10/48 2/4/32 44/72/1
f 50/91/1 6/14/29 8/19/26
f 46/83/19 56/113/29 54/107/28
f 50/92/1 44/73/1 79/172/3
f 6/15/29 50/93/1 80/177/12
f 41/65/21 49/90/21 43/70/24
f 49/90/21 7/17/66 48/87/24
f 43/70/24 49/90/21 48/87/24
f 7/17/66 5/12/28 48/87/24
f 43/70/24 1/2/23 3/7/31
f 36/54/30 51/96/12 52/101/25
f 39/60/30 52/102/25 48/88/24
f 53/104/23 54/108/28 56/114/29
f 52/103/25 55/111/32 56/115/29
f 45/77/3 54/109/28 53/105/23
f 51/97/12 53/106/23 55/112/32
f 60/120/30 62/128/12 67/141/25
f 79/173/3 85/192/28 87/198/23
f 61/123/3 57/116/2 68/143/2
f 66/136/19 68/143/2 33/49/2
f 67/140/25 66/137/19 45/78/3
f 65/133/30 67/141/25 51/98/12
f 72/150/30 74/158/25 62/128/12
f 74/159/25 73/154/19 61/124/3
f 73/155/19 69/144/2 57/116/2
f 78/168/30 80/178/12 74/160/25
f 67/142/25 84/190/32 83/186/29
f 79/174/3 75/163/2 69/145/2
f 81/180/23 82/183/28 83/187/29
f 87/199/23 85/193/28 86/195/29
f 61/125/3 82/184/28 81/181/23
f 80/179/12 87/200/23 88/202/32
f 73/156/19 86/196/29 85/194/28
f 74/161/25 88/203/32 86/197/29
f 62/129/12 81/182/23 84/191/32
f 66/138/19 83/188/29 82/185/28
f 32/47/14 96/216/37 95/213/33
f 16/29/14 89/205/37 94/212/33
f 93/210/7 28/43/13 95/213/33
f 97/217/35 101/225/38 110/244/36
f 98/219/34 102/228/39 101/225/38
f 99/221/34 104/232/39 103/230/38
f 93/210/7 98/220/34 97/218/35
f 32/47/14 31/46/16 97/218/35
f 12/24/13 94/212/33 92/208/34
f 90/206/9 100/223/35 89/205/37
f 24/38/14 19/33/37 27/41/33
f 91/207/7 20/34/13 27/41/33
f 91/207/7 99/222/34 15/27/35
f 90/206/9 11/23/5 92/208/34
f 24/38/14 23/37/16 15/27/35
f 110/243/36 101/226/38 102/227/39
f 111/245/36 103/229/38 104/231/39
f 112/247/40 107/237/36 105/233/41
f 94/211/33 112/248/40 106/236/42
f 92/209/34 106/236/42 105/234/41
f 112/248/40 123/280/50 124/283/43
f 111/246/36 122/277/47 116/259/44
f 27/42/33 108/240/40 104/232/39
f 100/224/35 105/234/41 107/238/36
f 15/28/35 103/230/38 111/246/36
f 95/214/33 109/242/40 102/228/39
f 107/238/36 124/283/43 118/265/44
f 113/249/45 125/286/26 131/303/29
f 119/268/46 131/304/29 132/306/32
f 120/271/47 132/307/32 126/288/48
f 94/211/33 117/262/51 123/280/50
f 110/244/36 109/242/40 119/269/46
f 27/41/33 19/33/37 116/260/44
f 27/42/33 115/256/45 121/274/50
f 96/216/37 114/254/49 113/250/45
f 95/214/33 113/251/45 119/269/46
f 108/240/40 121/274/50 122/277/47
f 94/212/33 89/205/37 118/266/44
f 110/244/36 120/272/47 114/253/49
f 128/294/48 134/312/32 133/309/29
f 126/289/48 132/308/32 131/305/29
f 130/300/48 136/318/32 135/315/29
f 114/254/49 126/290/48 125/287/26
f 117/263/51 129/298/26 135/316/29
f 121/275/50 133/310/29 134/313/32
f 124/284/43 136/319/32 130/301/48
f 116/260/44 128/295/48 127/292/26
f 122/278/47 134/314/32 128/296/48
f 123/281/50 135/317/29 136/320/32
f 118/266/44 130/302/48 129/299/26
f 115/257/45 127/293/26 133/311/29
f 26/40/4 25/39/8 137/321/52
f 25/39/8 140/324/18 137/321/52
f 138/322/19 29/44/15 30/45/10
f 26/40/4 137/321/52 30/45/10
f 141/325/53 154/338/55 155/339/54
f 18/31/4 17/30/8 141/325/53
f 142/326/19 21/35/15 22/36/10
f 18/31/4 141/325/53 22/36/10
f 144/328/17 157/341/61 154/338/55
f 10/22/4 9/21/6 149/333/56
f 10/22/4 149/333/56 145/329/25
f 146/330/19 13/25/11 14/26/10
f 10/22/4 145/329/25 14/26/10
f 149/333/56 9/21/6 148/332/12
f 139/323/57 152/336/60 153/337/58
f 145/329/25 158/342/62 159/343/29
f 150/334/59 153/337/58 152/336/60
f 157/341/61 156/340/64 155/339/54
f 146/330/19 159/343/29 160/344/28
f 140/324/18 153/337/58 150/334/59
f 137/321/52 150/334/59 151/335/54
f 142/326/19 155/339/54 156/340/64
f 147/331/3 160/344/28 161/345/63
f 138/322/19 151/335/54 152/336/60
f 143/327/65 156/340/64 157/341/61
f 148/332/12 161/345/63 158/342/62
f 71/148/20 77/166/20 72/151/30
f 77/166/20 8/20/26 78/169/30
f 72/151/30 77/166/20 78/169/30
f 8/20/26 6/16/29 78/169/30
f 72/151/30 60/121/30 71/148/20
f 60/121/30 65/134/30 59/119/20
f 71/148/20 60/121/30 59/119/20
f 64/132/20 59/119/20 65/134/30
f 65/134/30 36/55/30 64/132/20
f 36/55/30 39/61/30 35/52/20
f 64/132/20 36/55/30 35/52/20
f 38/58/20 35/52/20 39/61/30
f 39/61/30 5/13/28 7/18/66
