# Blender 5.0.1
# www.blender.org
mtllib room_5.mtl
o Cube
v -11.916682 -0.356495 32.543583
v -11.916682 0.356495 32.543583
v -11.916682 -0.356495 -32.543583
v -11.916682 0.356495 -32.543583
v 11.916682 -0.356495 32.543583
v 11.916682 0.356495 32.543583
v 11.916682 -0.356495 -32.543583
v 11.916682 0.356495 -32.543583
vn -0.0299 -0.9995 0.0109
vn -0.0299 0.9995 0.0109
vn -0.0299 -0.9995 -0.0109
vn -0.0299 0.9995 -0.0109
vn 0.0299 -0.9995 0.0109
vn 0.0299 0.9995 0.0109
vn 0.0299 -0.9995 -0.0109
vn 0.0299 0.9995 -0.0109
vt 0.375000 0.000000
vt 0.625000 0.000000
vt 0.625000 0.250000
vt 0.375000 0.250000
vt 0.625000 0.500000
vt 0.375000 0.500000
vt 0.625000 0.750000
vt 0.375000 0.750000
vt 0.625000 1.000000
vt 0.375000 1.000000
vt 0.125000 0.500000
vt 0.125000 0.750000
vt 0.875000 0.500000
vt 0.875000 0.750000
s 1
f 1/1/1 2/2/2 4/3/4 3/4/3
f 3/4/3 4/3/4 8/5/8 7/6/7
f 7/6/7 8/5/8 6/7/6 5/8/5
f 5/8/5 6/7/6 2/9/2 1/10/1
f 3/11/3 7/6/7 5/8/5 1/12/1
f 8/5/8 4/13/4 2/14/2 6/7/6
o Cube.004
v -0.258816 2.279055 31.854317
v -0.258816 5.457920 31.854317
v 1.426888 2.279055 31.854317
v 1.426888 5.457920 31.854317
v -0.258816 2.279055 32.420506
v -0.258816 5.457920 32.420506
v 1.426888 2.279055 32.420506
v 1.426888 5.457920 32.420506
vn -0.0000 -0.0000 -1.0000
vn 1.0000 -0.0000 -0.0000
vn -0.0000 -0.0000 1.0000
vn -1.0000 -0.0000 -0.0000
vn -0.0000 -1.0000 -0.0000
vn -0.0000 1.0000 -0.0000
vt 0.375000 0.000000
vt 0.625000 0.000000
vt 0.625000 0.250000
vt 0.375000 0.250000
vt 0.625000 0.500000
vt 0.375000 0.500000
vt 0.625000 0.750000
vt 0.375000 0.750000
vt 0.625000 1.000000
vt 0.375000 1.000000
vt 0.125000 0.500000
vt 0.125000 0.750000
vt 0.875000 0.500000
vt 0.875000 0.750000
s 1
f 9/15/9 10/16/9 12/17/9 11/18/9
f 11/18/10 12/17/10 16/19/10 15/20/10
f 15/20/11 16/19/11 14/21/11 13/22/11
f 13/22/12 14/21/12 10/23/12 9/24/12
f 11/25/13 15/20/13 13/22/13 9/26/13
f 16/19/14 12/27/14 10/28/14 14/21/14
o Cube.002
v 1.427720 0.091849 31.854317
v 1.427720 5.457920 31.854317
v 11.898607 0.091848 31.854317
v 11.898609 5.457919 31.854317
v 1.427720 0.091849 32.420506
v 1.427720 5.457920 32.420506
v 11.898607 0.091848 32.420506
v 11.898609 5.457919 32.420506
vn -0.0000 -0.0000 -1.0000
vn 1.0000 -0.0000 -0.0000
vn -0.0000 -0.0000 1.0000
vn -1.0000 -0.0000 -0.0000
vn -0.0000 -1.0000 -0.0000
vn -0.0000 1.0000 -0.0000
vt 0.375000 0.000000
vt 0.625000 0.000000
vt 0.625000 0.250000
vt 0.375000 0.250000
vt 0.625000 0.500000
vt 0.375000 0.500000
vt 0.625000 0.750000
vt 0.375000 0.750000
vt 0.625000 1.000000
vt 0.375000 1.000000
vt 0.125000 0.500000
vt 0.125000 0.750000
vt 0.875000 0.500000
vt 0.875000 0.750000
s 1
f 17/29/15 18/30/15 20/31/15 19/32/15
f 19/32/16 20/31/16 24/33/16 23/34/16
f 23/34/17 24/33/17 22/35/17 21/36/17
f 21/36/18 22/35/18 18/37/18 17/38/18
f 19/39/19 23/34/19 21/36/19 17/40/19
f 24/33/20 20/41/20 18/42/20 22/35/20
o Cube.001
v -11.900352 0.091850 31.854315
v -11.900352 5.457921 31.854315
v -0.243532 0.091849 31.854315
v -0.243531 5.457920 31.854315
v -11.900352 0.091850 32.420502
v -11.900352 5.457921 32.420502
v -0.243532 0.091849 32.420502
v -0.243531 5.457920 32.420502
vn -0.0000 -0.0000 -1.0000
vn 1.0000 -0.0000 -0.0000
vn -0.0000 -0.0000 1.0000
vn -1.0000 -0.0000 -0.0000
vn -0.0000 -1.0000 -0.0000
vn -0.0000 1.0000 -0.0000
vt 0.375000 0.000000
vt 0.625000 0.000000
vt 0.625000 0.250000
vt 0.375000 0.250000
vt 0.625000 0.500000
vt 0.375000 0.500000
vt 0.625000 0.750000
vt 0.375000 0.750000
vt 0.625000 1.000000
vt 0.375000 1.000000
vt 0.125000 0.500000
vt 0.125000 0.750000
vt 0.875000 0.500000
vt 0.875000 0.750000
s 1
f 25/43/21 26/44/21 28/45/21 27/46/21
f 27/46/22 28/45/22 32/47/22 31/48/22
f 31/48/23 32/47/23 30/49/23 29/50/23
f 29/50/24 30/49/24 26/51/24 25/52/24
f 27/53/25 31/48/25 29/50/25 25/54/25
f 32/47/26 28/55/26 26/56/26 30/49/26
o Cube.003
v -0.258816 2.279055 -32.496387
v -0.258816 5.457920 -32.496387
v 1.426888 2.279055 -32.496387
v 1.426888 5.457920 -32.496387
v -0.258816 2.279055 -31.930201
v -0.258816 5.457920 -31.930201
v 1.426888 2.279055 -31.930201
v 1.426888 5.457920 -31.930201
vn -0.0000 -0.0000 -1.0000
vn 1.0000 -0.0000 -0.0000
vn -0.0000 -0.0000 1.0000
vn -1.0000 -0.0000 -0.0000
vn -0.0000 -1.0000 -0.0000
vn -0.0000 1.0000 -0.0000
vt 0.375000 0.000000
vt 0.625000 0.000000
vt 0.625000 0.250000
vt 0.375000 0.250000
vt 0.625000 0.500000
vt 0.375000 0.500000
vt 0.625000 0.750000
vt 0.375000 0.750000
vt 0.625000 1.000000
vt 0.375000 1.000000
vt 0.125000 0.500000
vt 0.125000 0.750000
vt 0.875000 0.500000
vt 0.875000 0.750000
s 1
f 33/57/27 34/58/27 36/59/27 35/60/27
f 35/60/28 36/59/28 40/61/28 39/62/28
f 39/62/29 40/61/29 38/63/29 37/64/29
f 37/64/30 38/63/30 34/65/30 33/66/30
f 35/67/31 39/62/31 37/64/31 33/68/31
f 40/61/32 36/69/32 34/70/32 38/63/32
o Cube.005
v 1.427720 0.091849 -32.496387
v 1.427720 5.457920 -32.496387
v 11.910797 0.091848 -32.496387
v 11.910797 5.457919 -32.496387
v 1.427720 0.091849 -31.930201
v 1.427720 5.457920 -31.930201
v 11.910797 0.091848 -31.930201
v 11.910797 5.457919 -31.930201
vn -0.0000 -0.0000 -1.0000
vn 1.0000 -0.0000 -0.0000
vn -0.0000 -0.0000 1.0000
vn -1.0000 -0.0000 -0.0000
vn -0.0000 -1.0000 -0.0000
vn -0.0000 1.0000 -0.0000
vt 0.375000 0.000000
vt 0.625000 0.000000
vt 0.625000 0.250000
vt 0.375000 0.250000
vt 0.625000 0.500000
vt 0.375000 0.500000
vt 0.625000 0.750000
vt 0.375000 0.750000
vt 0.625000 1.000000
vt 0.375000 1.000000
vt 0.125000 0.500000
vt 0.125000 0.750000
vt 0.875000 0.500000
vt 0.875000 0.750000
s 1
f 41/71/33 42/72/33 44/73/33 43/74/33
f 43/74/34 44/73/34 48/75/34 47/76/34
f 47/76/35 48/75/35 46/77/35 45/78/35
f 45/78/36 46/77/36 42/79/36 41/80/36
f 43/81/37 47/76/37 45/78/37 41/82/37
f 48/75/38 44/83/38 42/84/38 46/77/38
o Cube.006
v -11.979015 0.091850 -32.496384
v -11.979014 5.457921 -32.496384
v -0.243532 0.091849 -32.496387
v -0.243531 5.457920 -32.496387
v -11.979015 0.091850 -31.930199
v -11.979014 5.457921 -31.930199
v -0.243532 0.091849 -31.930201
v -0.243531 5.457920 -31.930201
vn -0.0000 -0.0000 -1.0000
vn 1.0000 -0.0000 -0.0000
vn -0.0000 -0.0000 1.0000
vn -1.0000 -0.0000 -0.0000
vn -0.0000 -1.0000 -0.0000
vn -0.0000 1.0000 -0.0000
vt 0.375000 0.000000
vt 0.625000 0.000000
vt 0.625000 0.250000
vt 0.375000 0.250000
vt 0.625000 0.500000
vt 0.375000 0.500000
vt 0.625000 0.750000
vt 0.375000 0.750000
vt 0.625000 1.000000
vt 0.375000 1.000000
vt 0.125000 0.500000
vt 0.125000 0.750000
vt 0.875000 0.500000
vt 0.875000 0.750000
s 1
f 49/85/39 50/86/39 52/87/39 51/88/39
f 51/88/40 52/87/40 56/89/40 55/90/40
f 55/90/41 56/89/41 54/91/41 53/92/41
f 53/92/42 54/91/42 50/93/42 49/94/42
f 51/95/43 55/90/43 53/92/43 49/96/43
f 56/89/44 52/97/44 50/98/44 54/91/44
o Cube.007
v 11.165167 0.112581 31.895893
v 11.165167 5.447285 31.895893
v 11.165167 0.112581 -31.945856
v 11.165167 5.447285 -31.945856
v 11.862709 0.112581 31.895893
v 11.862709 5.447285 31.895893
v 11.862709 0.112581 -31.945856
v 11.862709 5.447285 -31.945856
vn -0.8968 -0.3128 0.3128
vn -0.8968 0.3128 0.3128
vn -0.8968 -0.3128 -0.3128
vn -0.8968 0.3128 -0.3128
vn 0.8968 -0.3128 0.3128
vn 0.8968 0.3128 0.3128
vn 0.8968 -0.3128 -0.3128
vn 0.8968 0.3128 -0.3128
vt 0.375000 0.000000
vt 0.625000 0.000000
vt 0.625000 0.250000
vt 0.375000 0.250000
vt 0.625000 0.500000
vt 0.375000 0.500000
vt 0.625000 0.750000
vt 0.375000 0.750000
vt 0.625000 1.000000
vt 0.375000 1.000000
vt 0.125000 0.500000
vt 0.125000 0.750000
vt 0.875000 0.500000
vt 0.875000 0.750000
s 1
f 57/99/45 58/100/46 60/101/48 59/102/47
f 59/102/47 60/101/48 64/103/52 63/104/51
f 63/104/51 64/103/52 62/105/50 61/106/49
f 61/106/49 62/105/50 58/107/46 57/108/45
f 59/109/47 63/104/51 61/106/49 57/110/45
f 64/103/52 60/111/48 58/112/46 62/105/50
o Cube.008
v -11.937216 0.112581 31.895893
v -11.937216 5.447285 31.895893
v -11.937216 0.112581 -31.945856
v -11.937216 5.447285 -31.945856
v -11.239674 0.112581 31.895893
v -11.239674 5.447285 31.895893
v -11.239674 0.112581 -31.945856
v -11.239674 5.447285 -31.945856
vn -0.8968 -0.3128 0.3128
vn -0.8968 0.3128 0.3128
vn -0.8968 -0.3128 -0.3128
vn -0.8968 0.3128 -0.3128
vn 0.8968 -0.3128 0.3128
vn 0.8968 0.3128 0.3128
vn 0.8968 -0.3128 -0.3128
vn 0.8968 0.3128 -0.3128
vt 0.375000 0.000000
vt 0.625000 0.000000
vt 0.625000 0.250000
vt 0.375000 0.250000
vt 0.625000 0.500000
vt 0.375000 0.500000
vt 0.625000 0.750000
vt 0.375000 0.750000
vt 0.625000 1.000000
vt 0.375000 1.000000
vt 0.125000 0.500000
vt 0.125000 0.750000
vt 0.875000 0.500000
vt 0.875000 0.750000
s 1
f 65/113/53 66/114/54 68/115/56 67/116/55
f 67/116/55 68/115/56 72/117/60 71/118/59
f 71/118/59 72/117/60 70/119/58 69/120/57
f 69/120/57 70/119/58 66/121/54 65/122/53
f 67/123/55 71/118/59 69/120/57 65/124/53
f 72/117/60 68/125/56 66/126/54 70/119/58
o Cube.009
v -11.916682 5.446392 32.543583
v -11.916682 6.159382 32.543583
v -11.916682 5.446392 -32.543583
v -11.916682 6.159382 -32.543583
v 11.916682 5.446392 32.543583
v 11.916682 6.159382 32.543583
v 11.916682 5.446392 -32.543583
v 11.916682 6.159382 -32.543583
vn -0.0299 -0.9995 0.0109
vn -0.0299 0.9995 0.0109
vn -0.0299 -0.9995 -0.0109
vn -0.0299 0.9995 -0.0109
vn 0.0299 -0.9995 0.0109
vn 0.0299 0.9995 0.0109
vn 0.0299 -0.9995 -0.0109
vn 0.0299 0.9995 -0.0109
vt 0.375000 0.000000
vt 0.625000 0.000000
vt 0.625000 0.250000
vt 0.375000 0.250000
vt 0.625000 0.500000
vt 0.375000 0.500000
vt 0.625000 0.750000
vt 0.375000 0.750000
vt 0.625000 1.000000
vt 0.375000 1.000000
vt 0.125000 0.500000
vt 0.125000 0.750000
vt 0.875000 0.500000
vt 0.875000 0.750000
s 1
f 73/127/61 74/128/62 76/129/64 75/130/63
f 75/130/63 76/129/64 80/131/68 79/132/67
f 79/132/67 80/131/68 78/133/66 77/134/65
f 77/134/65 78/133/66 74/135/62 73/136/61
f 75/137/63 79/132/67 77/134/65 73/138/61
f 80/131/68 76/139/64 74/140/62 78/133/66
