# Blender 5.0.1
# www.blender.org
mtllib room_11.mtl
o Cube.012
v -45.108746 2.293895 0.788719
v -45.108746 17.155909 0.788719
v -45.108746 2.293895 -0.866721
v -45.108746 17.155909 -0.866721
v -44.486713 2.293895 0.788719
v -44.486713 17.155909 0.788719
v -44.486713 2.293895 -0.866721
v -44.486713 17.155909 -0.866721
vn -1.0000 -0.0000 -0.0000
vn -0.0000 -0.0000 -1.0000
vn 1.0000 -0.0000 -0.0000
vn -0.0000 -0.0000 1.0000
vn -0.0000 -1.0000 -0.0000
vn -0.0000 1.0000 -0.0000
vt 0.375000 0.000000
vt 0.625000 0.000000
vt 0.625000 0.250000
vt 0.375000 0.250000
vt 0.625000 0.500000
vt 0.375000 0.500000
vt 0.625000 0.750000
vt 0.375000 0.750000
vt 0.625000 1.000000
vt 0.375000 1.000000
vt 0.125000 0.500000
vt 0.125000 0.750000
vt 0.875000 0.500000
vt 0.875000 0.750000
s 0
f 1/1/1 2/2/1 4/3/1 3/4/1
f 3/4/2 4/3/2 8/5/2 7/6/2
f 7/6/3 8/5/3 6/7/3 5/8/3
f 5/8/4 6/7/4 2/9/4 1/10/4
f 3/11/5 7/6/5 5/8/5 1/12/5
f 8/5/6 4/13/6 2/14/6 6/7/6
o Cube.011
v -45.108746 0.376891 -0.849975
v -45.108746 17.186222 -0.849975
v -45.108746 0.376891 -33.387577
v -45.108746 17.186222 -33.387577
v -44.486713 0.376891 -0.849975
v -44.486713 17.186222 -0.849975
v -44.486713 0.376891 -33.387577
v -44.486713 17.186222 -33.387577
vn -1.0000 -0.0000 -0.0000
vn -0.0000 -0.0000 -1.0000
vn 1.0000 -0.0000 -0.0000
vn -0.0000 -0.0000 1.0000
vn -0.0000 -1.0000 -0.0000
vn -0.0000 1.0000 -0.0000
vt 0.375000 0.000000
vt 0.625000 0.000000
vt 0.625000 0.250000
vt 0.375000 0.250000
vt 0.625000 0.500000
vt 0.375000 0.500000
vt 0.625000 0.750000
vt 0.375000 0.750000
vt 0.625000 1.000000
vt 0.375000 1.000000
vt 0.125000 0.500000
vt 0.125000 0.750000
vt 0.875000 0.500000
vt 0.875000 0.750000
s 0
f 9/15/7 10/16/7 12/17/7 11/18/7
f 11/18/8 12/17/8 16/19/8 15/20/8
f 15/20/9 16/19/9 14/21/9 13/22/9
f 13/22/10 14/21/10 10/23/10 9/24/10
f 11/25/11 15/20/11 13/22/11 9/26/11
f 16/19/12 12/27/12 10/28/12 14/21/12
o Cube.010
v -45.108746 0.376891 33.429749
v -45.108746 17.186222 33.429749
v -45.108746 0.376891 0.785386
v -45.108746 17.186222 0.785386
v -44.486713 0.376891 33.429749
v -44.486713 17.186222 33.429749
v -44.486713 0.376891 0.785386
v -44.486713 17.186222 0.785386
vn -1.0000 -0.0000 -0.0000
vn -0.0000 -0.0000 -1.0000
vn 1.0000 -0.0000 -0.0000
vn -0.0000 -0.0000 1.0000
vn -0.0000 -1.0000 -0.0000
vn -0.0000 1.0000 -0.0000
vt 0.375000 0.000000
vt 0.625000 0.000000
vt 0.625000 0.250000
vt 0.375000 0.250000
vt 0.625000 0.500000
vt 0.375000 0.500000
vt 0.625000 0.750000
vt 0.375000 0.750000
vt 0.625000 1.000000
vt 0.375000 1.000000
vt 0.125000 0.500000
vt 0.125000 0.750000
vt 0.875000 0.500000
vt 0.875000 0.750000
s 0
f 17/29/13 18/30/13 20/31/13 19/32/13
f 19/32/14 20/31/14 24/33/14 23/34/14
f 23/34/15 24/33/15 22/35/15 21/36/15
f 21/36/16 22/35/16 18/37/16 17/38/16
f 19/39/17 23/34/17 21/36/17 17/40/17
f 24/33/18 20/41/18 18/42/18 22/35/18
o Cube.001
v -45.077641 -0.356495 -33.431705
v -45.077641 0.356495 -33.431705
v 44.975628 -0.356495 -33.431713
v 44.975628 0.356495 -33.431713
v -45.077633 -0.356495 33.431713
v -45.077633 0.356495 33.431713
v 44.975636 -0.356495 33.431705
v 44.975636 0.356495 33.431705
vn -0.0079 -0.9999 -0.0107
vn -0.0079 0.9999 -0.0107
vn 0.0079 -0.9999 -0.0107
vn 0.0079 0.9999 -0.0107
vn -0.0079 -0.9999 0.0107
vn -0.0079 0.9999 0.0107
vn 0.0079 -0.9999 0.0107
vn 0.0079 0.9999 0.0107
vt 0.375000 0.000000
vt 0.625000 0.000000
vt 0.625000 0.250000
vt 0.375000 0.250000
vt 0.625000 0.500000
vt 0.375000 0.500000
vt 0.625000 0.750000
vt 0.375000 0.750000
vt 0.625000 1.000000
vt 0.375000 1.000000
vt 0.125000 0.500000
vt 0.125000 0.750000
vt 0.875000 0.500000
vt 0.875000 0.750000
s 1
f 25/43/19 26/44/20 28/45/22 27/46/21
f 27/46/21 28/45/22 32/47/26 31/48/25
f 31/48/25 32/47/26 30/49/24 29/50/23
f 29/50/23 30/49/24 26/51/20 25/52/19
f 27/53/21 31/48/25 29/50/23 25/54/19
f 32/47/26 28/55/22 26/56/20 30/49/24
o Cube.002
v 44.332363 2.293895 0.788719
v 44.332363 17.155909 0.788719
v 44.332363 2.293895 -0.866721
v 44.332363 17.155909 -0.866721
v 44.954395 2.293895 0.788719
v 44.954395 17.155909 0.788719
v 44.954395 2.293895 -0.866721
v 44.954395 17.155909 -0.866721
vn -1.0000 -0.0000 -0.0000
vn -0.0000 -0.0000 -1.0000
vn 1.0000 -0.0000 -0.0000
vn -0.0000 -0.0000 1.0000
vn -0.0000 -1.0000 -0.0000
vn -0.0000 1.0000 -0.0000
vt 0.375000 0.000000
vt 0.625000 0.000000
vt 0.625000 0.250000
vt 0.375000 0.250000
vt 0.625000 0.500000
vt 0.375000 0.500000
vt 0.625000 0.750000
vt 0.375000 0.750000
vt 0.625000 1.000000
vt 0.375000 1.000000
vt 0.125000 0.500000
vt 0.125000 0.750000
vt 0.875000 0.500000
vt 0.875000 0.750000
s 0
f 33/57/27 34/58/27 36/59/27 35/60/27
f 35/60/28 36/59/28 40/61/28 39/62/28
f 39/62/29 40/61/29 38/63/29 37/64/29
f 37/64/30 38/63/30 34/65/30 33/66/30
f 35/67/31 39/62/31 37/64/31 33/68/31
f 40/61/32 36/69/32 34/70/32 38/63/32
o Cube.003
v 44.332363 0.376891 -0.849975
v 44.332363 17.186222 -0.849975
v 44.332363 0.376891 -33.387577
v 44.332363 17.186222 -33.387577
v 44.954395 0.376891 -0.849975
v 44.954395 17.186222 -0.849975
v 44.954395 0.376891 -33.387577
v 44.954395 17.186222 -33.387577
vn -1.0000 -0.0000 -0.0000
vn -0.0000 -0.0000 -1.0000
vn 1.0000 -0.0000 -0.0000
vn -0.0000 -0.0000 1.0000
vn -0.0000 -1.0000 -0.0000
vn -0.0000 1.0000 -0.0000
vt 0.375000 0.000000
vt 0.625000 0.000000
vt 0.625000 0.250000
vt 0.375000 0.250000
vt 0.625000 0.500000
vt 0.375000 0.500000
vt 0.625000 0.750000
vt 0.375000 0.750000
vt 0.625000 1.000000
vt 0.375000 1.000000
vt 0.125000 0.500000
vt 0.125000 0.750000
vt 0.875000 0.500000
vt 0.875000 0.750000
s 0
f 41/71/33 42/72/33 44/73/33 43/74/33
f 43/74/34 44/73/34 48/75/34 47/76/34
f 47/76/35 48/75/35 46/77/35 45/78/35
f 45/78/36 46/77/36 42/79/36 41/80/36
f 43/81/37 47/76/37 45/78/37 41/82/37
f 48/75/38 44/83/38 42/84/38 46/77/38
o Cube.004
v 44.332363 0.376891 33.429749
v 44.332363 17.186222 33.429749
v 44.332363 0.376891 0.785386
v 44.332363 17.186222 0.785386
v 44.954395 0.376891 33.429749
v 44.954395 17.186222 33.429749
v 44.954395 0.376891 0.785386
v 44.954395 17.186222 0.785386
vn -1.0000 -0.0000 -0.0000
vn -0.0000 -0.0000 -1.0000
vn 1.0000 -0.0000 -0.0000
vn -0.0000 -0.0000 1.0000
vn -0.0000 -1.0000 -0.0000
vn -0.0000 1.0000 -0.0000
vt 0.375000 0.000000
vt 0.625000 0.000000
vt 0.625000 0.250000
vt 0.375000 0.250000
vt 0.625000 0.500000
vt 0.375000 0.500000
vt 0.625000 0.750000
vt 0.375000 0.750000
vt 0.625000 1.000000
vt 0.375000 1.000000
vt 0.125000 0.500000
vt 0.125000 0.750000
vt 0.875000 0.500000
vt 0.875000 0.750000
s 0
f 49/85/39 50/86/39 52/87/39 51/88/39
f 51/88/40 52/87/40 56/89/40 55/90/40
f 55/90/41 56/89/41 54/91/41 53/92/41
f 53/92/42 54/91/42 50/93/42 49/94/42
f 51/95/43 55/90/43 53/92/43 49/96/43
f 56/89/44 52/97/44 50/98/44 54/91/44
o Cube
v -44.872875 0.317032 33.437664
v -44.872875 16.992584 33.437664
v -44.872875 0.317032 32.749378
v -44.872875 16.992584 32.749378
v 44.872875 0.317032 33.437664
v 44.872875 16.992584 33.437664
v 44.872875 0.317032 32.749378
v 44.872875 16.992584 32.749378
vn -1.0000 -0.0000 -0.0000
vn -0.0000 -0.0000 -1.0000
vn 1.0000 -0.0000 -0.0000
vn -0.0000 -0.0000 1.0000
vn -0.0000 -1.0000 -0.0000
vn -0.0000 1.0000 -0.0000
vt 0.375000 0.000000
vt 0.625000 0.000000
vt 0.625000 0.250000
vt 0.375000 0.250000
vt 0.625000 0.500000
vt 0.375000 0.500000
vt 0.625000 0.750000
vt 0.375000 0.750000
vt 0.625000 1.000000
vt 0.375000 1.000000
vt 0.125000 0.500000
vt 0.125000 0.750000
vt 0.875000 0.500000
vt 0.875000 0.750000
s 0
f 57/99/45 58/100/45 60/101/45 59/102/45
f 59/102/46 60/101/46 64/103/46 63/104/46
f 63/104/47 64/103/47 62/105/47 61/106/47
f 61/106/48 62/105/48 58/107/48 57/108/48
f 59/109/49 63/104/49 61/106/49 57/110/49
f 64/103/50 60/111/50 58/112/50 62/105/50
o Cube.005
v -44.872875 0.317032 -32.629379
v -44.872875 16.992584 -32.629379
v -44.872875 0.317032 -33.317665
v -44.872875 16.992584 -33.317665
v 44.872875 0.317032 -32.629379
v 44.872875 16.992584 -32.629379
v 44.872875 0.317032 -33.317665
v 44.872875 16.992584 -33.317665
vn -1.0000 -0.0000 -0.0000
vn -0.0000 -0.0000 -1.0000
vn 1.0000 -0.0000 -0.0000
vn -0.0000 -0.0000 1.0000
vn -0.0000 -1.0000 -0.0000
vn -0.0000 1.0000 -0.0000
vt 0.375000 0.000000
vt 0.625000 0.000000
vt 0.625000 0.250000
vt 0.375000 0.250000
vt 0.625000 0.500000
vt 0.375000 0.500000
vt 0.625000 0.750000
vt 0.375000 0.750000
vt 0.625000 1.000000
vt 0.375000 1.000000
vt 0.125000 0.500000
vt 0.125000 0.750000
vt 0.875000 0.500000
vt 0.875000 0.750000
s 0
f 65/113/51 66/114/51 68/115/51 67/116/51
f 67/116/52 68/115/52 72/117/52 71/118/52
f 71/118/53 72/117/53 70/119/53 69/120/53
f 69/120/54 70/119/54 66/121/54 65/122/54
f 67/123/55 71/118/55 69/120/55 65/124/55
f 72/117/56 68/125/56 66/126/56 70/119/56
o Cube.006
v -45.077641 17.115238 -33.431705
v -45.077641 17.828228 -33.431705
v 44.975628 17.115238 -33.431713
v 44.975628 17.828228 -33.431713
v -45.077633 17.115238 33.431713
v -45.077633 17.828228 33.431713
v 44.975636 17.115238 33.431705
v 44.975636 17.828228 33.431705
vn -0.0079 -0.9999 -0.0107
vn -0.0079 0.9999 -0.0107
vn 0.0079 -0.9999 -0.0107
vn 0.0079 0.9999 -0.0107
vn -0.0079 -0.9999 0.0107
vn -0.0079 0.9999 0.0107
vn 0.0079 -0.9999 0.0107
vn 0.0079 0.9999 0.0107
vt 0.375000 0.000000
vt 0.625000 0.000000
vt 0.625000 0.250000
vt 0.375000 0.250000
vt 0.625000 0.500000
vt 0.375000 0.500000
vt 0.625000 0.750000
vt 0.375000 0.750000
vt 0.625000 1.000000
vt 0.375000 1.000000
vt 0.125000 0.500000
vt 0.125000 0.750000
vt 0.875000 0.500000
vt 0.875000 0.750000
s 1
f 73/127/57 74/128/58 76/129/60 75/130/59
f 75/130/59 76/129/60 80/131/64 79/132/63
f 79/132/63 80/131/64 78/133/62 77/134/61
f 77/134/61 78/133/62 74/135/58 73/136/57
f 75/137/59 79/132/63 77/134/61 73/138/57
f 80/131/64 76/139/60 74/140/58 78/133/62
