# Blender 5.0.1
# www.blender.org
mtllib room_7.mtl
o Cube.006
v -11.979015 0.091850 -32.496384
v -11.979014 5.457921 -32.496384
v -0.243532 0.091849 -32.496387
v -0.243531 5.457920 -32.496387
v -11.979015 0.091850 -31.930199
v -11.979014 5.457921 -31.930199
v -0.243532 0.091849 -31.930201
v -0.243531 5.457920 -31.930201
vn -0.0000 -0.0000 -1.0000
vn 1.0000 -0.0000 -0.0000
vn -0.0000 -0.0000 1.0000
vn -1.0000 -0.0000 -0.0000
vn -0.0000 -1.0000 -0.0000
vn -0.0000 1.0000 -0.0000
vt 0.375000 0.000000
vt 0.625000 0.000000
vt 0.625000 0.250000
vt 0.375000 0.250000
vt 0.625000 0.500000
vt 0.375000 0.500000
vt 0.625000 0.750000
vt 0.375000 0.750000
vt 0.625000 1.000000
vt 0.375000 1.000000
vt 0.125000 0.500000
vt 0.125000 0.750000
vt 0.875000 0.500000
vt 0.875000 0.750000
s 1
f 1/1/1 2/2/1 4/3/1 3/4/1
f 3/4/2 4/3/2 8/5/2 7/6/2
f 7/6/3 8/5/3 6/7/3 5/8/3
f 5/8/4 6/7/4 2/9/4 1/10/4
f 3/11/5 7/6/5 5/8/5 1/12/5
f 8/5/6 4/13/6 2/14/6 6/7/6
o Cube.005
v 1.427720 0.091849 -32.496387
v 1.427720 5.457920 -32.496387
v 11.910797 0.091848 -32.496387
v 11.910797 5.457919 -32.496387
v 1.427720 0.091849 -31.930201
v 1.427720 5.457920 -31.930201
v 11.910797 0.091848 -31.930201
v 11.910797 5.457919 -31.930201
vn -0.0000 -0.0000 -1.0000
vn 1.0000 -0.0000 -0.0000
vn -0.0000 -0.0000 1.0000
vn -1.0000 -0.0000 -0.0000
vn -0.0000 -1.0000 -0.0000
vn -0.0000 1.0000 -0.0000
vt 0.375000 0.000000
vt 0.625000 0.000000
vt 0.625000 0.250000
vt 0.375000 0.250000
vt 0.625000 0.500000
vt 0.375000 0.500000
vt 0.625000 0.750000
vt 0.375000 0.750000
vt 0.625000 1.000000
vt 0.375000 1.000000
vt 0.125000 0.500000
vt 0.125000 0.750000
vt 0.875000 0.500000
vt 0.875000 0.750000
s 1
f 9/15/7 10/16/7 12/17/7 11/18/7
f 11/18/8 12/17/8 16/19/8 15/20/8
f 15/20/9 16/19/9 14/21/9 13/22/9
f 13/22/10 14/21/10 10/23/10 9/24/10
f 11/25/11 15/20/11 13/22/11 9/26/11
f 16/19/12 12/27/12 10/28/12 14/21/12
o Cube.003
v -0.258816 2.349424 -32.505539
v -0.258816 5.457920 -32.505539
v 1.426888 2.349424 -32.505539
v 1.426888 5.457920 -32.505539
v -0.282852 2.324109 -31.934834
v -0.282852 5.432605 -31.934834
v 1.402852 2.324109 -31.934834
v 1.402852 5.432605 -31.934834
vn -0.0000 -0.0000 -1.0000
vn 0.9991 -0.0000 0.0421
vn -0.0000 -0.0000 1.0000
vn -0.9991 -0.0000 -0.0421
vn -0.0000 -0.9990 -0.0443
vn -0.0000 0.9990 0.0443
vt 0.375000 0.000000
vt 0.625000 0.000000
vt 0.625000 0.250000
vt 0.375000 0.250000
vt 0.625000 0.500000
vt 0.375000 0.500000
vt 0.625000 0.750000
vt 0.375000 0.750000
vt 0.625000 1.000000
vt 0.375000 1.000000
vt 0.125000 0.500000
vt 0.125000 0.750000
vt 0.875000 0.500000
vt 0.875000 0.750000
s 1
f 17/29/13 18/30/13 20/31/13 19/32/13
f 19/32/14 20/31/14 24/33/14 23/34/14
f 23/34/15 24/33/15 22/35/15 21/36/15
f 21/36/16 22/35/16 18/37/16 17/38/16
f 19/39/17 23/34/17 21/36/17 17/40/17
f 24/33/18 20/41/18 18/42/18 22/35/18
o Cube
v -11.916682 -0.356495 32.543583
v -11.916682 0.356495 32.543583
v -11.916682 -0.356495 -32.543583
v -11.916682 0.356495 -32.543583
v 11.916682 -0.356495 32.543583
v 11.916682 0.356495 32.543583
v 11.916682 -0.356495 -32.543583
v 11.916682 0.356495 -32.543583
vn -0.0299 -0.9995 0.0109
vn -0.0299 0.9995 0.0109
vn -0.0299 -0.9995 -0.0109
vn -0.0299 0.9995 -0.0109
vn 0.0299 -0.9995 0.0109
vn 0.0299 0.9995 0.0109
vn 0.0299 -0.9995 -0.0109
vn 0.0299 0.9995 -0.0109
vt 0.375000 0.000000
vt 0.625000 0.000000
vt 0.625000 0.250000
vt 0.375000 0.250000
vt 0.625000 0.500000
vt 0.375000 0.500000
vt 0.625000 0.750000
vt 0.375000 0.750000
vt 0.625000 1.000000
vt 0.375000 1.000000
vt 0.125000 0.500000
vt 0.125000 0.750000
vt 0.875000 0.500000
vt 0.875000 0.750000
s 1
f 25/43/19 26/44/20 28/45/22 27/46/21
f 27/46/21 28/45/22 32/47/26 31/48/25
f 31/48/25 32/47/26 30/49/24 29/50/23
f 29/50/23 30/49/24 26/51/20 25/52/19
f 27/53/21 31/48/25 29/50/23 25/54/19
f 32/47/26 28/55/22 26/56/20 30/49/24
o Cube.001
v -76.921967 -0.356495 8.727161
v -76.921967 0.356495 8.727161
v -11.908443 -0.356495 8.727156
v -11.908443 0.356495 8.727156
v -76.921967 -0.356495 32.560524
v -76.921967 0.356495 32.560524
v -11.908443 -0.356495 32.560520
v -11.908443 0.356495 32.560520
vn -0.0109 -0.9995 -0.0299
vn -0.0109 0.9995 -0.0299
vn 0.0109 -0.9995 -0.0299
vn 0.0109 0.9995 -0.0299
vn -0.0109 -0.9995 0.0299
vn -0.0109 0.9995 0.0299
vn 0.0109 -0.9995 0.0299
vn 0.0109 0.9995 0.0299
vt 0.375000 0.000000
vt 0.625000 0.000000
vt 0.625000 0.250000
vt 0.375000 0.250000
vt 0.625000 0.500000
vt 0.375000 0.500000
vt 0.625000 0.750000
vt 0.375000 0.750000
vt 0.625000 1.000000
vt 0.375000 1.000000
vt 0.125000 0.500000
vt 0.125000 0.750000
vt 0.875000 0.500000
vt 0.875000 0.750000
s 1
f 33/57/27 34/58/28 36/59/30 35/60/29
f 35/60/29 36/59/30 40/61/34 39/62/33
f 39/62/33 40/61/34 38/63/32 37/64/31
f 37/64/31 38/63/32 34/65/28 33/66/27
f 35/67/29 39/62/33 37/64/31 33/68/27
f 40/61/34 36/69/30 34/70/28 38/63/32
o Cube.002
v -76.871712 0.002442 8.687612
v -76.871712 5.433390 8.687612
v -76.871712 0.002442 -32.481499
v -76.871712 5.433390 -32.481499
v -11.902583 0.002442 8.687612
v -11.902583 5.433390 8.687612
v -11.902583 0.002442 -32.481499
v -11.902583 5.433390 -32.481499
vn -1.0000 -0.0000 -0.0000
vn -0.0000 -0.0000 -1.0000
vn 1.0000 -0.0000 -0.0000
vn -0.0000 -0.0000 1.0000
vn -0.0000 -1.0000 -0.0000
vn -0.0000 1.0000 -0.0000
vt 0.375000 0.000000
vt 0.625000 0.000000
vt 0.625000 0.250000
vt 0.375000 0.250000
vt 0.625000 0.500000
vt 0.375000 0.500000
vt 0.625000 0.750000
vt 0.375000 0.750000
vt 0.625000 1.000000
vt 0.375000 1.000000
vt 0.125000 0.500000
vt 0.125000 0.750000
vt 0.875000 0.500000
vt 0.875000 0.750000
s 0
f 41/71/35 42/72/35 44/73/35 43/74/35
f 43/74/36 44/73/36 48/75/36 47/76/36
f 47/76/37 48/75/37 46/77/37 45/78/37
f 45/78/38 46/77/38 42/79/38 41/80/38
f 43/81/39 47/76/39 45/78/39 41/82/39
f 48/75/40 44/83/40 42/84/40 46/77/40
o Cube.004
v -76.936050 0.002442 33.902218
v -76.936050 5.433390 33.902218
v -76.936050 0.002442 32.540180
v -76.936050 5.433390 32.540180
v 11.910270 0.002442 33.895500
v 11.910270 5.433390 33.895500
v 11.910270 0.002442 32.533463
v 11.910270 5.433390 32.533463
vn -1.0000 -0.0000 -0.0000
vn -0.0001 -0.0000 -1.0000
vn 1.0000 -0.0000 -0.0000
vn 0.0001 -0.0000 1.0000
vn -0.0000 -1.0000 -0.0000
vn -0.0000 1.0000 -0.0000
vt 0.375000 0.000000
vt 0.625000 0.000000
vt 0.625000 0.250000
vt 0.375000 0.250000
vt 0.625000 0.500000
vt 0.375000 0.500000
vt 0.625000 0.750000
vt 0.375000 0.750000
vt 0.625000 1.000000
vt 0.375000 1.000000
vt 0.125000 0.500000
vt 0.125000 0.750000
vt 0.875000 0.500000
vt 0.875000 0.750000
s 0
f 49/85/41 50/86/41 52/87/41 51/88/41
f 51/88/42 52/87/42 56/89/42 55/90/42
f 55/90/43 56/89/43 54/91/43 53/92/43
f 53/92/44 54/91/44 50/93/44 49/94/44
f 51/95/45 55/90/45 53/92/45 49/96/45
f 56/89/46 52/97/46 50/98/46 54/91/46
o Cube.007
v 11.893784 0.002442 33.927849
v 11.893784 5.433390 33.927849
v 11.893784 0.002442 -32.481499
v 11.893784 5.433390 -32.481499
v 13.169361 0.002442 33.927849
v 13.169361 5.433390 33.927849
v 13.169361 0.002442 -32.481499
v 13.169361 5.433390 -32.481499
vn -1.0000 -0.0000 -0.0000
vn -0.0000 -0.0000 -1.0000
vn 1.0000 -0.0000 -0.0000
vn -0.0000 -0.0000 1.0000
vn -0.0000 -1.0000 -0.0000
vn -0.0000 1.0000 -0.0000
vt 0.375000 0.000000
vt 0.625000 0.000000
vt 0.625000 0.250000
vt 0.375000 0.250000
vt 0.625000 0.500000
vt 0.375000 0.500000
vt 0.625000 0.750000
vt 0.375000 0.750000
vt 0.625000 1.000000
vt 0.375000 1.000000
vt 0.125000 0.500000
vt 0.125000 0.750000
vt 0.875000 0.500000
vt 0.875000 0.750000
s 0
f 57/99/47 58/100/47 60/101/47 59/102/47
f 59/102/48 60/101/48 64/103/48 63/104/48
f 63/104/49 64/103/49 62/105/49 61/106/49
f 61/106/50 62/105/50 58/107/50 57/108/50
f 59/109/51 63/104/51 61/106/51 57/110/51
f 64/103/52 60/111/52 58/112/52 62/105/52
o Cube.008
v -76.398865 0.091850 8.712531
v -76.398865 5.457921 8.712531
v -76.398865 0.091849 20.448015
v -76.398865 5.457920 20.448015
v -76.965057 0.091850 8.712531
v -76.965057 5.457921 8.712531
v -76.965050 0.091849 20.448015
v -76.965050 5.457920 20.448015
vn 1.0000 -0.0000 -0.0000
vn -0.0000 -0.0000 1.0000
vn -1.0000 -0.0000 -0.0000
vn -0.0000 -0.0000 -1.0000
vn -0.0000 -1.0000 -0.0000
vn -0.0000 1.0000 -0.0000
vt 0.375000 0.000000
vt 0.625000 0.000000
vt 0.625000 0.250000
vt 0.375000 0.250000
vt 0.625000 0.500000
vt 0.375000 0.500000
vt 0.625000 0.750000
vt 0.375000 0.750000
vt 0.625000 1.000000
vt 0.375000 1.000000
vt 0.125000 0.500000
vt 0.125000 0.750000
vt 0.875000 0.500000
vt 0.875000 0.750000
s 1
f 65/113/53 66/114/53 68/115/53 67/116/53
f 67/116/54 68/115/54 72/117/54 71/118/54
f 71/118/55 72/117/55 70/119/55 69/120/55
f 69/120/56 70/119/56 66/121/56 65/122/56
f 67/123/57 71/118/57 69/120/57 65/124/57
f 72/117/58 68/125/58 66/126/58 70/119/58
o Cube.009
v -76.398865 0.091849 22.119267
v -76.398865 5.457920 22.119267
v -76.398865 0.091848 32.602345
v -76.398865 5.457919 32.602345
v -76.965050 0.091849 22.119267
v -76.965050 5.457920 22.119267
v -76.965050 0.091848 32.602345
v -76.965050 5.457919 32.602345
vn 1.0000 -0.0000 -0.0000
vn -0.0000 -0.0000 1.0000
vn -1.0000 -0.0000 -0.0000
vn -0.0000 -0.0000 -1.0000
vn -0.0000 -1.0000 -0.0000
vn -0.0000 1.0000 -0.0000
vt 0.375000 0.000000
vt 0.625000 0.000000
vt 0.625000 0.250000
vt 0.375000 0.250000
vt 0.625000 0.500000
vt 0.375000 0.500000
vt 0.625000 0.750000
vt 0.375000 0.750000
vt 0.625000 1.000000
vt 0.375000 1.000000
vt 0.125000 0.500000
vt 0.125000 0.750000
vt 0.875000 0.500000
vt 0.875000 0.750000
s 1
f 73/127/59 74/128/59 76/129/59 75/130/59
f 75/130/60 76/129/60 80/131/60 79/132/60
f 79/132/61 80/131/61 78/133/61 77/134/61
f 77/134/62 78/133/62 74/135/62 73/136/62
f 75/137/63 79/132/63 77/134/63 73/138/63
f 80/131/64 76/139/64 74/140/64 78/133/64
o Cube.010
v -76.389709 2.349424 20.432732
v -76.389709 5.457920 20.432732
v -76.389709 2.349424 22.118435
v -76.389709 5.457920 22.118435
v -76.960419 2.324109 20.408695
v -76.960419 5.432605 20.408695
v -76.960419 2.324109 22.094398
v -76.960419 5.432605 22.094400
vn 1.0000 -0.0000 -0.0000
vn -0.0421 -0.0000 0.9991
vn -1.0000 -0.0000 -0.0000
vn 0.0421 -0.0000 -0.9991
vn 0.0443 -0.9990 -0.0000
vn -0.0443 0.9990 -0.0000
vt 0.375000 0.000000
vt 0.625000 0.000000
vt 0.625000 0.250000
vt 0.375000 0.250000
vt 0.625000 0.500000
vt 0.375000 0.500000
vt 0.625000 0.750000
vt 0.375000 0.750000
vt 0.625000 1.000000
vt 0.375000 1.000000
vt 0.125000 0.500000
vt 0.125000 0.750000
vt 0.875000 0.500000
vt 0.875000 0.750000
s 1
f 81/141/65 82/142/65 84/143/65 83/144/65
f 83/144/66 84/143/66 88/145/66 87/146/66
f 87/146/67 88/145/67 86/147/67 85/148/67
f 85/148/68 86/147/68 82/149/68 81/150/68
f 83/151/69 87/146/69 85/148/69 81/152/69
f 88/145/70 84/153/70 82/154/70 86/147/70
o Cube.012
v -76.921967 5.426008 -32.493557
v -76.921967 6.138999 -32.493557
v 13.217834 5.426008 -32.493565
v 13.217834 6.138999 -32.493565
v -76.921967 5.426008 33.934677
v -76.921967 6.138999 33.934677
v 13.217831 5.426008 33.934669
v 13.217831 6.138999 33.934669
vn -0.0109 -0.9995 -0.0299
vn -0.0109 0.9995 -0.0299
vn 0.0109 -0.9995 -0.0299
vn 0.0109 0.9995 -0.0299
vn -0.0109 -0.9995 0.0299
vn -0.0109 0.9995 0.0299
vn 0.0109 -0.9995 0.0299
vn 0.0109 0.9995 0.0299
vt 0.375000 0.000000
vt 0.625000 0.000000
vt 0.625000 0.250000
vt 0.375000 0.250000
vt 0.625000 0.500000
vt 0.375000 0.500000
vt 0.625000 0.750000
vt 0.375000 0.750000
vt 0.625000 1.000000
vt 0.375000 1.000000
vt 0.125000 0.500000
vt 0.125000 0.750000
vt 0.875000 0.500000
vt 0.875000 0.750000
s 1
f 89/155/71 90/156/72 92/157/74 91/158/73
f 91/158/73 92/157/74 96/159/78 95/160/77
f 95/160/77 96/159/78 94/161/76 93/162/75
f 93/162/75 94/161/76 90/163/72 89/164/71
f 91/165/73 95/160/77 93/162/75 89/166/71
f 96/159/78 92/167/74 90/168/72 94/161/76
