# Blender 5.0.1
# www.blender.org
mtllib room.mtl
o Cube
v -29.753332 -0.182262 9.688707
v -29.753332 0.182262 9.688707
v -29.753332 -0.182262 -9.688707
v -29.753332 0.182262 -9.688707
v 29.753332 -0.182262 9.688707
v 29.753332 0.182262 9.688707
v 29.753332 -0.182262 -9.688707
v 29.753332 0.182262 -9.688707
vn -1.0000 -0.0000 -0.0000
vn -0.0000 -0.0000 -1.0000
vn 1.0000 -0.0000 -0.0000
vn -0.0000 -0.0000 1.0000
vn -0.0000 -1.0000 -0.0000
vn -0.0000 1.0000 -0.0000
vt 0.375000 0.000000
vt 0.625000 0.000000
vt 0.625000 0.250000
vt 0.375000 0.250000
vt 0.625000 0.500000
vt 0.375000 0.500000
vt 0.625000 0.750000
vt 0.375000 0.750000
vt 0.625000 1.000000
vt 0.375000 1.000000
vt 0.125000 0.500000
vt 0.125000 0.750000
vt 0.875000 0.500000
vt 0.875000 0.750000
s 0
f 1/1/1 2/2/1 4/3/1 3/4/1
f 3/4/2 4/3/2 8/5/2 7/6/2
f 7/6/3 8/5/3 6/7/3 5/8/3
f 5/8/4 6/7/4 2/9/4 1/10/4
f 3/11/5 7/6/5 5/8/5 1/12/5
f 8/5/6 4/13/6 2/14/6 6/7/6
o Cube.001
v 29.190243 0.091849 9.670183
v 29.190243 5.457920 9.670183
v 29.190243 0.091849 0.900619
v 29.190243 5.457920 0.900619
v 29.756430 0.091849 9.670183
v 29.756430 5.457920 9.670183
v 29.756430 0.091849 0.900619
v 29.756430 5.457920 0.900619
vn -1.0000 -0.0000 -0.0000
vn -0.0000 -0.0000 -1.0000
vn 1.0000 -0.0000 -0.0000
vn -0.0000 -0.0000 1.0000
vn -0.0000 -1.0000 -0.0000
vn -0.0000 1.0000 -0.0000
vt 0.375000 0.000000
vt 0.625000 0.000000
vt 0.625000 0.250000
vt 0.375000 0.250000
vt 0.625000 0.500000
vt 0.375000 0.500000
vt 0.625000 0.750000
vt 0.375000 0.750000
vt 0.625000 1.000000
vt 0.375000 1.000000
vt 0.125000 0.500000
vt 0.125000 0.750000
vt 0.875000 0.500000
vt 0.875000 0.750000
s 0
f 9/15/7 10/16/7 12/17/7 11/18/7
f 11/18/8 12/17/8 16/19/8 15/20/8
f 15/20/9 16/19/9 14/21/9 13/22/9
f 13/22/10 14/21/10 10/23/10 9/24/10
f 11/25/11 15/20/11 13/22/11 9/26/11
f 16/19/12 12/27/12 10/28/12 14/21/12
o Cube.002
v 29.190243 0.091849 -0.790056
v 29.190243 5.457920 -0.790056
v 29.190243 0.091849 -9.655238
v 29.190243 5.457920 -9.655238
v 29.756430 0.091849 -0.790056
v 29.756430 5.457920 -0.790056
v 29.756430 0.091849 -9.655238
v 29.756430 5.457920 -9.655238
vn -1.0000 -0.0000 -0.0000
vn -0.0000 -0.0000 -1.0000
vn 1.0000 -0.0000 -0.0000
vn -0.0000 -0.0000 1.0000
vn -0.0000 -1.0000 -0.0000
vn -0.0000 1.0000 -0.0000
vt 0.375000 0.000000
vt 0.625000 0.000000
vt 0.625000 0.250000
vt 0.375000 0.250000
vt 0.625000 0.500000
vt 0.375000 0.500000
vt 0.625000 0.750000
vt 0.375000 0.750000
vt 0.625000 1.000000
vt 0.375000 1.000000
vt 0.125000 0.500000
vt 0.125000 0.750000
vt 0.875000 0.500000
vt 0.875000 0.750000
s 0
f 17/29/13 18/30/13 20/31/13 19/32/13
f 19/32/14 20/31/14 24/33/14 23/34/14
f 23/34/15 24/33/15 22/35/15 21/36/15
f 21/36/16 22/35/16 18/37/16 17/38/16
f 19/39/17 23/34/17 21/36/17 17/40/17
f 24/33/18 20/41/18 18/42/18 22/35/18
o Cube.004
v 29.190243 2.279055 0.896480
v 29.190243 5.457920 0.896480
v 29.190243 2.279055 -0.789224
v 29.190243 5.457920 -0.789224
v 29.756430 2.279055 0.896480
v 29.756430 5.457920 0.896480
v 29.756430 2.279055 -0.789224
v 29.756430 5.457920 -0.789224
vn -1.0000 -0.0000 -0.0000
vn -0.0000 -0.0000 -1.0000
vn 1.0000 -0.0000 -0.0000
vn -0.0000 -0.0000 1.0000
vn -0.0000 -1.0000 -0.0000
vn -0.0000 1.0000 -0.0000
vt 0.375000 0.000000
vt 0.625000 0.000000
vt 0.625000 0.250000
vt 0.375000 0.250000
vt 0.625000 0.500000
vt 0.375000 0.500000
vt 0.625000 0.750000
vt 0.375000 0.750000
vt 0.625000 1.000000
vt 0.375000 1.000000
vt 0.125000 0.500000
vt 0.125000 0.750000
vt 0.875000 0.500000
vt 0.875000 0.750000
s 0
f 25/43/19 26/44/19 28/45/19 27/46/19
f 27/46/20 28/45/20 32/47/20 31/48/20
f 31/48/21 32/47/21 30/49/21 29/50/21
f 29/50/22 30/49/22 26/51/22 25/52/22
f 27/53/23 31/48/23 29/50/23 25/54/23
f 32/47/24 28/55/24 26/56/24 30/49/24
o Cube.003
v -29.762470 0.091849 9.670183
v -29.762470 5.388578 9.670183
v -29.762470 0.091849 0.900619
v -29.762470 5.388578 0.900619
v -29.196283 0.091849 9.670183
v -29.196283 5.388578 9.670183
v -29.196283 0.091849 0.900619
v -29.196283 5.388578 0.900619
vn -1.0000 -0.0000 -0.0000
vn -0.0000 -0.0000 -1.0000
vn 1.0000 -0.0000 -0.0000
vn -0.0000 -0.0000 1.0000
vn -0.0000 -1.0000 -0.0000
vn -0.0000 1.0000 -0.0000
vt 0.375000 0.000000
vt 0.625000 0.000000
vt 0.625000 0.250000
vt 0.375000 0.250000
vt 0.625000 0.500000
vt 0.375000 0.500000
vt 0.625000 0.750000
vt 0.375000 0.750000
vt 0.625000 1.000000
vt 0.375000 1.000000
vt 0.125000 0.500000
vt 0.125000 0.750000
vt 0.875000 0.500000
vt 0.875000 0.750000
s 0
f 33/57/25 34/58/25 36/59/25 35/60/25
f 35/60/26 36/59/26 40/61/26 39/62/26
f 39/62/27 40/61/27 38/63/27 37/64/27
f 37/64/28 38/63/28 34/65/28 33/66/28
f 35/67/29 39/62/29 37/64/29 33/68/29
f 40/61/30 36/69/30 34/70/30 38/63/30
o Cube.005
v -29.762470 0.091849 -0.790056
v -29.762470 5.388578 -0.790056
v -29.762470 0.091849 -9.655238
v -29.762470 5.388578 -9.655238
v -29.196283 0.091849 -0.790056
v -29.196283 5.388578 -0.790056
v -29.196283 0.091849 -9.655238
v -29.196283 5.388578 -9.655238
vn -1.0000 -0.0000 -0.0000
vn -0.0000 -0.0000 -1.0000
vn 1.0000 -0.0000 -0.0000
vn -0.0000 -0.0000 1.0000
vn -0.0000 -1.0000 -0.0000
vn -0.0000 1.0000 -0.0000
vt 0.375000 0.000000
vt 0.625000 0.000000
vt 0.625000 0.250000
vt 0.375000 0.250000
vt 0.625000 0.500000
vt 0.375000 0.500000
vt 0.625000 0.750000
vt 0.375000 0.750000
vt 0.625000 1.000000
vt 0.375000 1.000000
vt 0.125000 0.500000
vt 0.125000 0.750000
vt 0.875000 0.500000
vt 0.875000 0.750000
s 0
f 41/71/31 42/72/31 44/73/31 43/74/31
f 43/74/32 44/73/32 48/75/32 47/76/32
f 47/76/33 48/75/33 46/77/33 45/78/33
f 45/78/34 46/77/34 42/79/34 41/80/34
f 43/81/35 47/76/35 45/78/35 41/82/35
f 48/75/36 44/83/36 42/84/36 46/77/36
o Cube.006
v -29.762470 2.279055 0.896480
v -29.762470 5.388578 0.896480
v -29.762470 2.279055 -0.789224
v -29.762470 5.388578 -0.789224
v -29.196283 2.279055 0.896480
v -29.196283 5.388578 0.896480
v -29.196283 2.279055 -0.789224
v -29.196283 5.388578 -0.789224
vn -1.0000 -0.0000 -0.0000
vn -0.0000 -0.0000 -1.0000
vn 1.0000 -0.0000 -0.0000
vn -0.0000 -0.0000 1.0000
vn -0.0000 -1.0000 -0.0000
vn -0.0000 1.0000 -0.0000
vt 0.375000 0.000000
vt 0.625000 0.000000
vt 0.625000 0.250000
vt 0.375000 0.250000
vt 0.625000 0.500000
vt 0.375000 0.500000
vt 0.625000 0.750000
vt 0.375000 0.750000
vt 0.625000 1.000000
vt 0.375000 1.000000
vt 0.125000 0.500000
vt 0.125000 0.750000
vt 0.875000 0.500000
vt 0.875000 0.750000
s 0
f 49/85/37 50/86/37 52/87/37 51/88/37
f 51/88/38 52/87/38 56/89/38 55/90/38
f 55/90/39 56/89/39 54/91/39 53/92/39
f 53/92/40 54/91/40 50/93/40 49/94/40
f 51/95/41 55/90/41 53/92/41 49/96/41
f 56/89/42 52/97/42 50/98/42 54/91/42
o Cube.007
v 29.194031 0.091849 -9.120410
v 29.194031 5.457920 -9.120410
v -29.307026 0.091849 -9.120411
v -29.307026 5.457920 -9.120411
v 29.194031 0.091849 -9.686597
v 29.194031 5.457920 -9.686597
v -29.307026 0.091849 -9.686598
v -29.307026 5.457920 -9.686598
vn -0.0000 -0.0000 1.0000
vn -1.0000 -0.0000 -0.0000
vn -0.0000 -0.0000 -1.0000
vn 1.0000 -0.0000 -0.0000
vn -0.0000 -1.0000 -0.0000
vn -0.0000 1.0000 -0.0000
vt 0.375000 0.000000
vt 0.625000 0.000000
vt 0.625000 0.250000
vt 0.375000 0.250000
vt 0.625000 0.500000
vt 0.375000 0.500000
vt 0.625000 0.750000
vt 0.375000 0.750000
vt 0.625000 1.000000
vt 0.375000 1.000000
vt 0.125000 0.500000
vt 0.125000 0.750000
vt 0.875000 0.500000
vt 0.875000 0.750000
s 0
f 57/99/43 58/100/43 60/101/43 59/102/43
f 59/102/44 60/101/44 64/103/44 63/104/44
f 63/104/45 64/103/45 62/105/45 61/106/45
f 61/106/46 62/105/46 58/107/46 57/108/46
f 59/109/47 63/104/47 61/106/47 57/110/47
f 64/103/48 60/111/48 58/112/48 62/105/48
o Cube.008
v 29.194031 0.091849 9.681545
v 29.194031 5.414212 9.681545
v -29.307026 0.091849 9.681544
v -29.307026 5.414212 9.681544
v 29.194031 0.091849 9.115358
v 29.194031 5.414212 9.115358
v -29.307026 0.091849 9.115357
v -29.307026 5.414212 9.115357
v 1.573179 0.091849 9.115358
v 0.941124 0.091849 9.115358
v 1.319820 3.091230 9.115358
v 3.627531 1.535423 9.115358
v -3.711830 1.126249 9.115358
v 1.297724 3.034676 9.681545
v 3.722805 1.417159 9.681545
v 1.374844 0.189281 9.681545
v 0.459732 0.185793 9.681545
v -3.964760 0.981025 9.681545
v 1.965822 0.191529 9.681545
vn -0.0000 -0.0000 1.0000
vn -1.0000 -0.0000 -0.0000
vn -0.0000 -0.0000 -1.0000
vn 1.0000 -0.0000 -0.0000
vn -0.0000 -1.0000 -0.0000
vn -0.0000 1.0000 -0.0000
vn 0.1947 0.9660 0.1700
vn -0.5551 0.7926 0.2522
vn -0.5545 -0.8271 -0.0918
vn 0.3626 -0.9287 -0.0774
vt 0.375000 0.000000
vt 0.625000 0.000000
vt 0.625000 0.250000
vt 0.375000 0.250000
vt 0.441617 0.141702
vt 0.595477 0.119213
vt 0.474293 0.108849
vt 0.625000 0.500000
vt 0.375000 0.500000
vt 0.625000 0.750000
vt 0.375000 0.750000
vt 0.375000 0.631964
vt 0.483153 0.640743
vt 0.599714 0.630882
vt 0.452497 0.609379
vt 0.375000 0.629263
vt 0.625000 1.000000
vt 0.375000 1.000000
vt 0.125000 0.500000
vt 0.125000 0.750000
vt 0.875000 0.500000
vt 0.875000 0.750000
vt 0.382300 0.118883
vt 0.382038 0.122794
vt 0.382468 0.116358
s 0
f 65/113/49 66/114/49 68/115/49 67/116/49 82/117/49 78/118/49 79/119/49
f 67/116/50 68/115/50 72/120/50 71/121/50
f 71/121/51 72/120/51 70/122/51 69/123/51 73/124/51 76/125/51 75/126/51 77/127/51 74/128/51
f 69/123/52 70/122/52 66/129/52 65/130/52
f 67/131/53 71/121/53 74/128/53 73/124/53 69/123/53 65/132/53
f 72/120/54 68/133/54 66/134/54 70/122/54
f 80/135/49 81/136/49 82/117/49 67/116/49 65/113/49 79/119/49 83/137/49
f 77/127/55 82/117/55 81/136/55 74/128/55
f 73/124/56 83/137/56 79/119/56 76/125/56
f 76/125/57 79/119/57 78/118/57 75/126/57
f 75/126/58 78/118/58 82/117/58 77/127/58
o Cube.009
v -29.753332 5.352684 9.688707
v -29.753332 5.717207 9.688707
v -29.753332 5.352684 -9.688707
v -29.753332 5.717207 -9.688707
v 29.753332 5.352684 9.688707
v 29.753332 5.717207 9.688707
v 29.753332 5.352684 -9.688707
v 29.753332 5.717207 -9.688707
vn -1.0000 -0.0000 -0.0000
vn -0.0000 -0.0000 -1.0000
vn 1.0000 -0.0000 -0.0000
vn -0.0000 -0.0000 1.0000
vn -0.0000 -1.0000 -0.0000
vn -0.0000 1.0000 -0.0000
vt 0.375000 0.000000
vt 0.625000 0.000000
vt 0.625000 0.250000
vt 0.375000 0.250000
vt 0.625000 0.500000
vt 0.375000 0.500000
vt 0.625000 0.750000
vt 0.375000 0.750000
vt 0.625000 1.000000
vt 0.375000 1.000000
vt 0.125000 0.500000
vt 0.125000 0.750000
vt 0.875000 0.500000
vt 0.875000 0.750000
s 0
f 84/138/59 85/139/59 87/140/59 86/141/59
f 86/141/60 87/140/60 91/142/60 90/143/60
f 90/143/61 91/142/61 89/144/61 88/145/61
f 88/145/62 89/144/62 85/146/62 84/147/62
f 86/148/63 90/143/63 88/145/63 84/149/63
f 91/142/64 87/150/64 85/151/64 89/144/64
