# Blender 5.0.1
# www.blender.org
mtllib room_9.mtl
o Cube.001
v -21.470993 -0.356495 -7.292527
v -21.470993 0.356495 -7.292527
v 21.422407 -0.356495 -7.292530
v 21.422407 0.356495 -7.292530
v -21.470993 -0.356495 7.292530
v -21.470993 0.356495 7.292530
v 21.422407 -0.356495 7.292527
v 21.422407 0.356495 7.292527
vn -0.0166 -0.9987 -0.0488
vn -0.0166 0.9987 -0.0488
vn 0.0166 -0.9987 -0.0488
vn 0.0166 0.9987 -0.0488
vn -0.0166 -0.9987 0.0488
vn -0.0166 0.9987 0.0488
vn 0.0166 -0.9987 0.0488
vn 0.0166 0.9987 0.0488
vt 0.375000 0.000000
vt 0.625000 0.000000
vt 0.625000 0.250000
vt 0.375000 0.250000
vt 0.625000 0.500000
vt 0.375000 0.500000
vt 0.625000 0.750000
vt 0.375000 0.750000
vt 0.625000 1.000000
vt 0.375000 1.000000
vt 0.125000 0.500000
vt 0.125000 0.750000
vt 0.875000 0.500000
vt 0.875000 0.750000
s 1
f 1/1/1 2/2/2 4/3/4 3/4/3
f 3/4/3 4/3/4 8/5/8 7/6/7
f 7/6/7 8/5/8 6/7/6 5/8/5
f 5/8/5 6/7/6 2/9/2 1/10/1
f 3/11/3 7/6/7 5/8/5 1/12/1
f 8/5/8 4/13/4 2/14/2 6/7/6
o Cube.017
v 21.421961 0.336391 -7.295534
v 21.421961 7.606387 -7.295533
v 21.421963 0.336391 -0.875422
v 21.421963 7.606386 -0.875422
v 20.855774 0.336391 -7.295534
v 20.855774 7.606387 -7.295533
v 20.855776 0.336391 -0.875422
v 20.855776 7.606386 -0.875422
vn 1.0000 -0.0000 -0.0000
vn -0.0000 -0.0000 1.0000
vn -1.0000 -0.0000 -0.0000
vn -0.0000 -0.0000 -1.0000
vn -0.0000 -1.0000 -0.0000
vn -0.0000 1.0000 -0.0000
vt 0.375000 0.000000
vt 0.625000 0.000000
vt 0.625000 0.250000
vt 0.375000 0.250000
vt 0.625000 0.500000
vt 0.375000 0.500000
vt 0.625000 0.750000
vt 0.375000 0.750000
vt 0.625000 1.000000
vt 0.375000 1.000000
vt 0.125000 0.500000
vt 0.125000 0.750000
vt 0.875000 0.500000
vt 0.875000 0.750000
s 1
f 9/15/9 10/16/9 12/17/9 11/18/9
f 11/18/10 12/17/10 16/19/10 15/20/10
f 15/20/11 16/19/11 14/21/11 13/22/11
f 13/22/12 14/21/12 10/23/12 9/24/12
f 11/25/13 15/20/13 13/22/13 9/26/13
f 16/19/14 12/27/14 10/28/14 14/21/14
o Cube.016
v 21.421963 0.336391 0.795830
v 21.421963 7.636168 0.795831
v 21.421965 0.336390 7.275968
v 21.421965 7.636167 7.275968
v 20.855776 0.336391 0.795830
v 20.855776 7.636168 0.795831
v 20.855778 0.336390 7.275968
v 20.855778 7.636167 7.275969
vn 1.0000 -0.0000 -0.0000
vn -0.0000 -0.0000 1.0000
vn -1.0000 -0.0000 -0.0000
vn -0.0000 -0.0000 -1.0000
vn -0.0000 -1.0000 -0.0000
vn -0.0000 1.0000 -0.0000
vt 0.375000 0.000000
vt 0.625000 0.000000
vt 0.625000 0.250000
vt 0.375000 0.250000
vt 0.625000 0.500000
vt 0.375000 0.500000
vt 0.625000 0.750000
vt 0.375000 0.750000
vt 0.625000 1.000000
vt 0.375000 1.000000
vt 0.125000 0.500000
vt 0.125000 0.750000
vt 0.875000 0.500000
vt 0.875000 0.750000
s 1
f 17/29/15 18/30/15 20/31/15 19/32/15
f 19/32/16 20/31/16 24/33/16 23/34/16
f 23/34/17 24/33/17 22/35/17 21/36/17
f 21/36/18 22/35/18 18/37/18 17/38/18
f 19/39/19 23/34/19 21/36/19 17/40/19
f 24/33/20 20/41/20 18/42/20 22/35/20
o Cube.015
v 21.431114 2.593965 -0.890706
v 21.431114 7.636168 -0.890705
v 21.431114 2.593965 0.794998
v 21.431114 7.636168 0.794999
v 20.860409 2.568650 -0.914741
v 20.860409 7.610853 -0.914741
v 20.860409 2.568650 0.770963
v 20.860409 7.610853 0.770963
vn 1.0000 -0.0000 -0.0000
vn -0.0421 -0.0000 0.9991
vn -1.0000 -0.0000 -0.0000
vn 0.0421 -0.0000 -0.9991
vn 0.0443 -0.9990 -0.0000
vn -0.0443 0.9990 -0.0000
vt 0.375000 0.000000
vt 0.625000 0.000000
vt 0.625000 0.250000
vt 0.375000 0.250000
vt 0.625000 0.500000
vt 0.375000 0.500000
vt 0.625000 0.750000
vt 0.375000 0.750000
vt 0.625000 1.000000
vt 0.375000 1.000000
vt 0.125000 0.500000
vt 0.125000 0.750000
vt 0.875000 0.500000
vt 0.875000 0.750000
s 1
f 25/43/21 26/44/21 28/45/21 27/46/21
f 27/46/22 28/45/22 32/47/22 31/48/22
f 31/48/23 32/47/23 30/49/23 29/50/23
f 29/50/24 30/49/24 26/51/24 25/52/24
f 27/53/25 31/48/25 29/50/25 25/54/25
f 32/47/26 28/55/26 26/56/26 30/49/26
o Cube.002
v -36.028946 -0.356495 36.596153
v -36.028946 0.356495 36.596153
v -36.028946 -0.356495 -36.513340
v -36.028946 0.356495 -36.513340
v -21.443888 -0.356495 36.596153
v -21.443888 0.356495 36.596153
v -21.443888 -0.356495 -36.513340
v -21.443888 0.356495 -36.513340
vn -0.0488 -0.9988 0.0097
vn -0.0488 0.9988 0.0097
vn -0.0488 -0.9988 -0.0097
vn -0.0488 0.9988 -0.0097
vn 0.0488 -0.9988 0.0097
vn 0.0488 0.9988 0.0097
vn 0.0488 -0.9988 -0.0097
vn 0.0488 0.9988 -0.0097
vt 0.375000 0.000000
vt 0.625000 0.000000
vt 0.625000 0.250000
vt 0.375000 0.250000
vt 0.625000 0.500000
vt 0.375000 0.500000
vt 0.625000 0.750000
vt 0.375000 0.750000
vt 0.625000 1.000000
vt 0.375000 1.000000
vt 0.125000 0.500000
vt 0.125000 0.750000
vt 0.875000 0.500000
vt 0.875000 0.750000
s 1
f 33/57/27 34/58/28 36/59/30 35/60/29
f 35/60/29 36/59/30 40/61/34 39/62/33
f 39/62/33 40/61/34 38/63/32 37/64/31
f 37/64/31 38/63/32 34/65/28 33/66/27
f 35/67/29 39/62/33 37/64/31 33/68/27
f 40/61/34 36/69/30 34/70/28 38/63/32
o Cube
v -21.437550 -1.000000 36.220615
v -21.437550 7.628850 36.220615
v -21.437550 -1.000000 7.269073
v -21.437550 7.628850 7.269073
v 21.376011 -1.000000 36.220615
v 21.376011 7.628850 36.220615
v 21.376011 -1.000000 7.269073
v 21.376011 7.628850 7.269073
vn -0.0121 -0.2469 0.9690
vn -0.0121 0.2469 0.9690
vn -0.0121 -0.2469 -0.9690
vn -0.0121 0.2469 -0.9690
vn 0.0121 -0.2469 0.9690
vn 0.0121 0.2469 0.9690
vn 0.0121 -0.2469 -0.9690
vn 0.0121 0.2469 -0.9690
vt 0.375000 0.000000
vt 0.625000 0.000000
vt 0.625000 0.250000
vt 0.375000 0.250000
vt 0.625000 0.500000
vt 0.375000 0.500000
vt 0.625000 0.750000
vt 0.375000 0.750000
vt 0.625000 1.000000
vt 0.375000 1.000000
vt 0.125000 0.500000
vt 0.125000 0.750000
vt 0.875000 0.500000
vt 0.875000 0.750000
s 1
f 41/71/35 42/72/36 44/73/38 43/74/37
f 43/74/37 44/73/38 48/75/42 47/76/41
f 47/76/41 48/75/42 46/77/40 45/78/39
f 45/78/39 46/77/40 42/79/36 41/80/35
f 43/81/37 47/76/41 45/78/39 41/82/35
f 48/75/42 44/83/38 42/84/36 46/77/40
o Cube.003
v -21.437550 -1.000000 -7.268793
v -21.437550 7.628850 -7.268793
v -21.437550 -1.000000 -36.220337
v -21.437550 7.628850 -36.220337
v 21.376011 -1.000000 -7.268793
v 21.376011 7.628850 -7.268793
v 21.376011 -1.000000 -36.220337
v 21.376011 7.628850 -36.220337
vn -0.0121 -0.2469 0.9690
vn -0.0121 0.2469 0.9690
vn -0.0121 -0.2469 -0.9690
vn -0.0121 0.2469 -0.9690
vn 0.0121 -0.2469 0.9690
vn 0.0121 0.2469 0.9690
vn 0.0121 -0.2469 -0.9690
vn 0.0121 0.2469 -0.9690
vt 0.375000 0.000000
vt 0.625000 0.000000
vt 0.625000 0.250000
vt 0.375000 0.250000
vt 0.625000 0.500000
vt 0.375000 0.500000
vt 0.625000 0.750000
vt 0.375000 0.750000
vt 0.625000 1.000000
vt 0.375000 1.000000
vt 0.125000 0.500000
vt 0.125000 0.750000
vt 0.875000 0.500000
vt 0.875000 0.750000
s 1
f 49/85/43 50/86/44 52/87/46 51/88/45
f 51/88/45 52/87/46 56/89/50 55/90/49
f 55/90/49 56/89/50 54/91/48 53/92/47
f 53/92/47 54/91/48 50/93/44 49/94/43
f 51/95/45 55/90/49 53/92/47 49/96/43
f 56/89/50 52/97/46 50/98/44 54/91/48
o Cube.004
v -37.438118 -1.000000 36.619202
v -37.438118 7.628850 36.619202
v -37.438118 -1.000000 -36.220337
v -37.438118 7.628850 -36.220337
v -36.003410 -1.000000 36.619202
v -36.003410 7.628850 36.619202
v -36.003410 -1.000000 -36.220337
v -36.003410 7.628850 -36.220337
vn -0.0121 -0.2469 0.9690
vn -0.0121 0.2469 0.9690
vn -0.0121 -0.2469 -0.9690
vn -0.0121 0.2469 -0.9690
vn 0.0121 -0.2469 0.9690
vn 0.0121 0.2469 0.9690
vn 0.0121 -0.2469 -0.9690
vn 0.0121 0.2469 -0.9690
vt 0.375000 0.000000
vt 0.625000 0.000000
vt 0.625000 0.250000
vt 0.375000 0.250000
vt 0.625000 0.500000
vt 0.375000 0.500000
vt 0.625000 0.750000
vt 0.375000 0.750000
vt 0.625000 1.000000
vt 0.375000 1.000000
vt 0.125000 0.500000
vt 0.125000 0.750000
vt 0.875000 0.500000
vt 0.875000 0.750000
s 1
f 57/99/51 58/100/52 60/101/54 59/102/53
f 59/102/53 60/101/54 64/103/58 63/104/57
f 63/104/57 64/103/58 62/105/56 61/106/55
f 61/106/55 62/105/56 58/107/52 57/108/51
f 59/109/53 63/104/57 61/106/55 57/110/51
f 64/103/58 60/111/54 58/112/52 62/105/56
o Cube.005
v -36.107391 0.336391 29.218817
v -36.107391 7.606387 29.218817
v -29.612879 0.336391 29.218817
v -29.612877 7.606386 29.218817
v -36.107391 0.336391 29.785004
v -36.107391 7.606387 29.785004
v -29.612879 0.336391 29.785004
v -29.612877 7.606386 29.785004
vn -0.0000 -0.0000 -1.0000
vn 1.0000 -0.0000 -0.0000
vn -0.0000 -0.0000 1.0000
vn -1.0000 -0.0000 -0.0000
vn -0.0000 -1.0000 -0.0000
vn -0.0000 1.0000 -0.0000
vt 0.375000 0.000000
vt 0.625000 0.000000
vt 0.625000 0.250000
vt 0.375000 0.250000
vt 0.625000 0.500000
vt 0.375000 0.500000
vt 0.625000 0.750000
vt 0.375000 0.750000
vt 0.625000 1.000000
vt 0.375000 1.000000
vt 0.125000 0.500000
vt 0.125000 0.750000
vt 0.875000 0.500000
vt 0.875000 0.750000
s 1
f 65/113/59 66/114/59 68/115/59 67/116/59
f 67/116/60 68/115/60 72/117/60 71/118/60
f 71/118/61 72/117/61 70/119/61 69/120/61
f 69/120/62 70/119/62 66/121/62 65/122/62
f 67/123/63 71/118/63 69/120/63 65/124/63
f 72/117/64 68/125/64 66/126/64 70/119/64
o Cube.006
v -27.941626 0.336391 29.218817
v -27.941626 7.636168 29.218817
v -21.424229 0.336390 29.218817
v -21.424229 7.636167 29.218817
v -27.941626 0.336391 29.785004
v -27.941626 7.636168 29.785004
v -21.424229 0.336390 29.785004
v -21.424229 7.636167 29.785004
vn -0.0000 -0.0000 -1.0000
vn 1.0000 -0.0000 -0.0000
vn -0.0000 -0.0000 1.0000
vn -1.0000 -0.0000 -0.0000
vn -0.0000 -1.0000 -0.0000
vn -0.0000 1.0000 -0.0000
vt 0.375000 0.000000
vt 0.625000 0.000000
vt 0.625000 0.250000
vt 0.375000 0.250000
vt 0.625000 0.500000
vt 0.375000 0.500000
vt 0.625000 0.750000
vt 0.375000 0.750000
vt 0.625000 1.000000
vt 0.375000 1.000000
vt 0.125000 0.500000
vt 0.125000 0.750000
vt 0.875000 0.500000
vt 0.875000 0.750000
s 1
f 73/127/65 74/128/65 76/129/65 75/130/65
f 75/130/66 76/129/66 80/131/66 79/132/66
f 79/132/67 80/131/67 78/133/67 77/134/67
f 77/134/68 78/133/68 74/135/68 73/136/68
f 75/137/69 79/132/69 77/134/69 73/138/69
f 80/131/70 76/139/70 74/140/70 78/133/70
o Cube.007
v -29.628160 2.593965 29.209665
v -29.628160 7.636168 29.209665
v -27.910963 2.593965 29.209665
v -27.910963 7.636168 29.209665
v -29.652197 2.568650 29.780371
v -29.652197 7.610853 29.780371
v -27.934999 2.568650 29.780371
v -27.934999 7.610853 29.780371
vn -0.0000 -0.0000 -1.0000
vn 0.9991 -0.0000 0.0421
vn -0.0000 -0.0000 1.0000
vn -0.9991 -0.0000 -0.0421
vn -0.0000 -0.9990 -0.0443
vn -0.0000 0.9990 0.0443
vt 0.375000 0.000000
vt 0.625000 0.000000
vt 0.625000 0.250000
vt 0.375000 0.250000
vt 0.625000 0.500000
vt 0.375000 0.500000
vt 0.625000 0.750000
vt 0.375000 0.750000
vt 0.625000 1.000000
vt 0.375000 1.000000
vt 0.125000 0.500000
vt 0.125000 0.750000
vt 0.875000 0.500000
vt 0.875000 0.750000
s 1
f 81/141/71 82/142/71 84/143/71 83/144/71
f 83/144/72 84/143/72 88/145/72 87/146/72
f 87/146/73 88/145/73 86/147/73 85/148/73
f 85/148/74 86/147/74 82/149/74 81/150/74
f 83/151/75 87/146/75 85/148/75 81/152/75
f 88/145/76 84/153/76 82/154/76 86/147/76
o Cube.008
v -36.107391 0.336391 -36.158993
v -36.107391 7.606387 -36.158993
v -29.612879 0.336391 -36.158993
v -29.612877 7.606386 -36.158993
v -36.107391 0.336391 -35.592804
v -36.107391 7.606387 -35.592804
v -29.612879 0.336391 -35.592804
v -29.612877 7.606386 -35.592804
vn -0.0000 -0.0000 -1.0000
vn 1.0000 -0.0000 -0.0000
vn -0.0000 -0.0000 1.0000
vn -1.0000 -0.0000 -0.0000
vn -0.0000 -1.0000 -0.0000
vn -0.0000 1.0000 -0.0000
vt 0.375000 0.000000
vt 0.625000 0.000000
vt 0.625000 0.250000
vt 0.375000 0.250000
vt 0.625000 0.500000
vt 0.375000 0.500000
vt 0.625000 0.750000
vt 0.375000 0.750000
vt 0.625000 1.000000
vt 0.375000 1.000000
vt 0.125000 0.500000
vt 0.125000 0.750000
vt 0.875000 0.500000
vt 0.875000 0.750000
s 1
f 89/155/77 90/156/77 92/157/77 91/158/77
f 91/158/78 92/157/78 96/159/78 95/160/78
f 95/160/79 96/159/79 94/161/79 93/162/79
f 93/162/80 94/161/80 90/163/80 89/164/80
f 91/165/81 95/160/81 93/162/81 89/166/81
f 96/159/82 92/167/82 90/168/82 94/161/82
o Cube.009
v -27.941626 0.336391 -36.158993
v -27.941626 7.636168 -36.158993
v -21.424229 0.336390 -36.158993
v -21.424229 7.636167 -36.158993
v -27.941626 0.336391 -35.592804
v -27.941626 7.636168 -35.592804
v -21.424229 0.336390 -35.592804
v -21.424229 7.636167 -35.592804
vn -0.0000 -0.0000 -1.0000
vn 1.0000 -0.0000 -0.0000
vn -0.0000 -0.0000 1.0000
vn -1.0000 -0.0000 -0.0000
vn -0.0000 -1.0000 -0.0000
vn -0.0000 1.0000 -0.0000
vt 0.375000 0.000000
vt 0.625000 0.000000
vt 0.625000 0.250000
vt 0.375000 0.250000
vt 0.625000 0.500000
vt 0.375000 0.500000
vt 0.625000 0.750000
vt 0.375000 0.750000
vt 0.625000 1.000000
vt 0.375000 1.000000
vt 0.125000 0.500000
vt 0.125000 0.750000
vt 0.875000 0.500000
vt 0.875000 0.750000
s 1
f 97/169/83 98/170/83 100/171/83 99/172/83
f 99/172/84 100/171/84 104/173/84 103/174/84
f 103/174/85 104/173/85 102/175/85 101/176/85
f 101/176/86 102/175/86 98/177/86 97/178/86
f 99/179/87 103/174/87 101/176/87 97/180/87
f 104/173/88 100/181/88 98/182/88 102/175/88
o Cube.010
v -29.628160 2.593965 -36.168144
v -29.628160 7.636168 -36.168144
v -27.942457 2.593965 -36.168144
v -27.942457 7.636168 -36.168144
v -29.652197 2.568650 -35.597439
v -29.652197 7.610853 -35.597439
v -27.966494 2.568650 -35.597439
v -27.966494 7.610853 -35.597439
vn -0.0000 -0.0000 -1.0000
vn 0.9991 -0.0000 0.0421
vn -0.0000 -0.0000 1.0000
vn -0.9991 -0.0000 -0.0421
vn -0.0000 -0.9990 -0.0443
vn -0.0000 0.9990 0.0443
vt 0.375000 0.000000
vt 0.625000 0.000000
vt 0.625000 0.250000
vt 0.375000 0.250000
vt 0.625000 0.500000
vt 0.375000 0.500000
vt 0.625000 0.750000
vt 0.375000 0.750000
vt 0.625000 1.000000
vt 0.375000 1.000000
vt 0.125000 0.500000
vt 0.125000 0.750000
vt 0.875000 0.500000
vt 0.875000 0.750000
s 1
f 105/183/89 106/184/89 108/185/89 107/186/89
f 107/186/90 108/185/90 112/187/90 111/188/90
f 111/188/91 112/187/91 110/189/91 109/190/91
f 109/190/92 110/189/92 106/191/92 105/192/92
f 107/193/93 111/188/93 109/190/93 105/194/93
f 112/187/94 108/195/94 106/196/94 110/189/94
o Cube.011
v -29.718296 0.310928 31.768263
v -29.718296 3.600309 31.768263
v -29.718296 0.310928 29.768263
v -29.718296 3.600309 29.768263
v -27.718296 0.310928 31.768263
v -27.718296 3.600309 31.768263
v -27.718296 0.310928 29.768263
v -27.718296 3.600309 29.768263
vn -0.5774 -0.5774 0.5774
vn -0.5774 0.5774 0.5774
vn -0.5774 -0.5774 -0.5774
vn -0.5774 0.5774 -0.5774
vn 0.5774 -0.5774 0.5774
vn 0.5774 0.5774 0.5774
vn 0.5774 -0.5774 -0.5774
vn 0.5774 0.5774 -0.5774
vt 0.375000 0.000000
vt 0.625000 0.000000
vt 0.625000 0.250000
vt 0.375000 0.250000
vt 0.625000 0.500000
vt 0.375000 0.500000
vt 0.625000 0.750000
vt 0.375000 0.750000
vt 0.625000 1.000000
vt 0.375000 1.000000
vt 0.125000 0.500000
vt 0.125000 0.750000
vt 0.875000 0.500000
vt 0.875000 0.750000
s 1
f 113/197/95 114/198/96 116/199/98 115/200/97
f 115/200/97 116/199/98 120/201/102 119/202/101
f 119/202/101 120/201/102 118/203/100 117/204/99
f 117/204/99 118/203/100 114/205/96 113/206/95
f 115/207/97 119/202/101 117/204/99 113/208/95
f 120/201/102 116/209/98 114/210/96 118/203/100
o Cube.012
v -29.977104 1.888766 29.226231
v -29.977104 2.417734 29.226231
v -29.977104 1.888766 29.140980
v -29.977104 2.417734 29.140980
v -27.668892 1.888766 29.226231
v -27.668892 2.417734 29.226231
v -27.668892 1.888766 29.140980
v -27.668892 2.417734 29.140980
vn -0.5774 -0.5774 0.5774
vn -0.5774 0.5774 0.5774
vn -0.5774 -0.5774 -0.5774
vn -0.5774 0.5774 -0.5774
vn 0.5774 -0.5774 0.5774
vn 0.5774 0.5774 0.5774
vn 0.5774 -0.5774 -0.5774
vn 0.5774 0.5774 -0.5774
vt 0.375000 0.000000
vt 0.625000 0.000000
vt 0.625000 0.250000
vt 0.375000 0.250000
vt 0.625000 0.500000
vt 0.375000 0.500000
vt 0.625000 0.750000
vt 0.375000 0.750000
vt 0.625000 1.000000
vt 0.375000 1.000000
vt 0.125000 0.500000
vt 0.125000 0.750000
vt 0.875000 0.500000
vt 0.875000 0.750000
s 1
f 121/211/103 122/212/104 124/213/106 123/214/105
f 123/214/105 124/213/106 128/215/110 127/216/109
f 127/216/109 128/215/110 126/217/108 125/218/107
f 125/218/107 126/217/108 122/219/104 121/220/103
f 123/221/105 127/216/109 125/218/107 121/222/103
f 128/215/110 124/223/106 122/224/104 126/217/108
o Cube.013
v -29.806330 0.466572 29.226231
v -29.987247 0.963639 29.226231
v -29.806330 0.466572 29.140980
v -29.987247 0.963639 29.140980
v -27.637321 1.256026 29.226231
v -27.818239 1.753094 29.226231
v -27.637321 1.256026 29.140980
v -27.818239 1.753094 29.140980
vn -0.3451 -0.7400 0.5774
vn -0.7400 0.3451 0.5774
vn -0.3451 -0.7400 -0.5774
vn -0.7400 0.3451 -0.5774
vn 0.7400 -0.3451 0.5774
vn 0.3451 0.7400 0.5774
vn 0.7400 -0.3451 -0.5774
vn 0.3451 0.7400 -0.5774
vt 0.375000 0.000000
vt 0.625000 0.000000
vt 0.625000 0.250000
vt 0.375000 0.250000
vt 0.625000 0.500000
vt 0.375000 0.500000
vt 0.625000 0.750000
vt 0.375000 0.750000
vt 0.625000 1.000000
vt 0.375000 1.000000
vt 0.125000 0.500000
vt 0.125000 0.750000
vt 0.875000 0.500000
vt 0.875000 0.750000
s 1
f 129/225/111 130/226/112 132/227/114 131/228/113
f 131/228/113 132/227/114 136/229/118 135/230/117
f 135/230/117 136/229/118 134/231/116 133/232/115
f 133/232/115 134/231/116 130/233/112 129/234/111
f 131/235/113 135/230/117 133/232/115 129/236/111
f 136/229/118 132/237/114 130/238/112 134/231/116
o Cube.018
v -37.547314 7.353518 36.596153
v -37.547314 8.066509 36.596153
v -37.547314 7.353518 -36.513340
v -37.547314 8.066509 -36.513340
v 21.426029 7.353518 36.596153
v 21.426029 8.066509 36.596153
v 21.426029 7.353518 -36.513340
v 21.426029 8.066509 -36.513340
vn -0.0488 -0.9988 0.0097
vn -0.0488 0.9988 0.0097
vn -0.0488 -0.9988 -0.0097
vn -0.0488 0.9988 -0.0097
vn 0.0488 -0.9988 0.0097
vn 0.0488 0.9988 0.0097
vn 0.0488 -0.9988 -0.0097
vn 0.0488 0.9988 -0.0097
vt 0.375000 0.000000
vt 0.625000 0.000000
vt 0.625000 0.250000
vt 0.375000 0.250000
vt 0.625000 0.500000
vt 0.375000 0.500000
vt 0.625000 0.750000
vt 0.375000 0.750000
vt 0.625000 1.000000
vt 0.375000 1.000000
vt 0.125000 0.500000
vt 0.125000 0.750000
vt 0.875000 0.500000
vt 0.875000 0.750000
s 1
f 137/239/119 138/240/120 140/241/122 139/242/121
f 139/242/121 140/241/122 144/243/126 143/244/125
f 143/244/125 144/243/126 142/245/124 141/246/123
f 141/246/123 142/245/124 138/247/120 137/248/119
f 139/249/121 143/244/125 141/246/123 137/250/119
f 144/243/126 140/251/122 138/252/120 142/245/124
