# Blender 3.3.1
# www.blender.org
mtllib matress.mtl
o matress
v -2.209821 -0.293210 0.876984
v -2.483299 -0.293210 0.603506
v -2.346560 -0.293210 0.840345
v -2.446660 -0.293210 0.740245
v -2.483299 0.293210 0.603506
v -2.209821 0.293210 0.876984
v -2.446660 0.293210 0.740245
v -2.346560 0.293210 0.840345
v -2.483299 -0.293210 -1.533662
v -2.209821 -0.293210 -1.807140
v -2.446660 -0.293210 -1.670401
v -2.346560 -0.293210 -1.770501
v -2.209821 0.293210 -1.807140
v -2.483299 0.293210 -1.533662
v -2.346560 0.293210 -1.770501
v -2.446660 0.293210 -1.670401
v 2.483299 -0.293210 0.603506
v 2.209821 -0.293210 0.876984
v 2.446660 -0.293210 0.740245
v 2.346560 -0.293210 0.840345
v 2.209821 0.293210 0.876984
v 2.483299 0.293210 0.603506
v 2.346560 0.293210 0.840345
v 2.446660 0.293210 0.740245
v 2.209821 -0.293210 -1.807140
v 2.483299 -0.293210 -1.533662
v 2.346560 -0.293210 -1.770501
v 2.446660 -0.293210 -1.670401
v 2.483299 0.293210 -1.533662
v 2.209821 0.293210 -1.807140
v 2.446660 0.293210 -1.670401
v 2.346560 0.293210 -1.770501
vn 0.0958 0.6789 0.7280
vn -0.0958 -0.6789 0.7280
vn 0.0958 -0.6789 0.7280
vn 0.7280 0.6789 -0.0958
vn 0.7280 -0.6789 0.0958
vn 0.7280 -0.6789 -0.0958
vn 0.7280 0.6789 0.0958
vn 0.0958 0.6789 -0.7280
vn -0.7280 0.6789 0.0958
vn -0.7280 -0.6789 -0.0958
vn -0.7280 -0.6789 0.0958
vn -0.0958 0.6789 -0.7280
vn 0.0958 -0.6789 -0.7280
vn -0.0958 -0.6789 -0.7280
vn -0.0958 0.6789 0.7280
vn -0.3786 -0.6532 0.6557
vn -0.3786 0.6532 0.6557
vn -0.6557 -0.6532 0.3786
vn -0.6557 0.6532 0.3786
vn -0.3786 0.6532 -0.6557
vn -0.3786 -0.6532 -0.6557
vn -0.6557 0.6532 -0.3786
vn -0.6557 -0.6532 -0.3786
vn -0.7280 0.6789 -0.0958
vn 0.6557 0.6532 -0.3786
vn 0.6557 -0.6532 -0.3786
vn 0.3786 0.6532 -0.6557
vn 0.3786 -0.6532 -0.6557
vn 0.3786 0.6532 0.6557
vn 0.3786 -0.6532 0.6557
vn 0.6557 0.6532 0.3786
vn 0.6557 -0.6532 0.3786
vt 0.000000 0.000006
vt 0.055063 0.000006
vt 0.055063 0.248740
vt 0.101887 0.000006
vt 0.000000 0.325282
vt 0.013650 0.000006
vt 0.027532 0.258995
vt 0.050944 0.000006
vt 0.007377 0.287011
vt 0.000000 0.325282
vt 0.101887 0.222401
vt 0.055063 0.224351
vt 0.055063 0.248740
vt 0.000000 0.222401
vt 0.007377 0.287011
vt 0.050944 0.222401
vt 0.027532 0.258995
vt 0.013650 0.222401
vt 0.898113 0.000006
vt 0.000000 0.923441
vt 0.055063 0.000006
vt 1.000000 0.000006
vt 0.055063 0.999983
vt 0.949056 0.000006
vt 0.007377 0.961712
vt 0.986350 0.000006
vt 0.027532 0.989728
vt 1.000000 0.222401
vt 0.055063 0.999983
vt 0.055063 0.224351
vt 0.000000 0.923441
vt 0.898113 0.222401
vt 0.027532 0.989728
vt 0.986350 0.222401
vt 0.007377 0.961712
vt 0.949056 0.222401
vt 0.101887 0.000006
vt 1.000000 0.325282
vt 0.944936 0.000006
vt 0.000000 0.000006
vt 0.944937 0.248740
vt 0.050944 0.000006
vt 0.992623 0.287011
vt 0.013650 0.000006
vt 0.972468 0.258995
vt 0.000000 0.222401
vt 0.944936 0.224351
vt 0.944937 0.248740
vt 1.000000 0.325282
vt 0.101887 0.222401
vt 0.972468 0.258995
vt 0.013650 0.222401
vt 0.992623 0.287011
vt 0.050944 0.222401
vt 0.944936 0.000006
vt 1.000000 0.000006
vt 0.944937 0.999983
vt 0.898113 0.000006
vt 1.000000 0.923441
vt 0.986350 0.000006
vt 0.972468 0.989728
vt 0.949056 0.000006
vt 0.992623 0.961712
vt 0.898113 0.222401
vt 1.000000 0.923441
vt 0.944937 0.999983
vt 0.944936 0.224351
vt 1.000000 0.222401
vt 0.992623 0.961712
vt 0.949056 0.222401
vt 0.972468 0.989728
vt 0.986350 0.222401
s 1
usemtl matress
f 21/47/1 1/2/2 18/39/3
f 29/64/4 17/37/5 26/58/6
f 21/48/1 22/49/7 30/66/8
f 5/11/9 9/19/10 2/4/11
f 13/30/12 25/55/13 10/21/14
f 6/14/15 3/6/16 1/1/2
f 8/18/17 4/8/18 3/6/16
f 7/16/19 2/4/11 4/8/18
f 10/22/14 15/34/20 13/28/12
f 12/26/21 16/36/22 15/34/20
f 11/24/23 14/32/24 16/36/22
f 26/58/6 31/70/25 29/64/4
f 28/62/26 32/72/27 31/70/25
f 27/60/28 30/68/8 32/72/27
f 18/40/3 23/52/29 21/46/1
f 20/44/30 24/54/31 23/52/29
f 19/42/32 22/50/7 24/54/31
f 1/3/2 2/5/11 10/23/14
f 21/47/1 6/12/15 1/2/2
f 29/64/4 22/50/7 17/37/5
f 22/49/7 29/65/4 30/66/8
f 29/65/4 31/69/25 30/66/8
f 31/69/25 32/71/27 30/66/8
f 30/66/8 13/29/12 6/13/15
f 13/29/12 15/33/20 14/31/24
f 15/33/20 16/35/22 14/31/24
f 14/31/24 5/10/9 6/13/15
f 5/10/9 7/15/19 6/13/15
f 7/15/19 8/17/17 6/13/15
f 6/13/15 21/48/1 30/66/8
f 21/48/1 23/51/29 22/49/7
f 23/51/29 24/53/31 22/49/7
f 13/29/12 14/31/24 6/13/15
f 5/11/9 14/32/24 9/19/10
f 13/30/12 30/67/8 25/55/13
f 6/14/15 8/18/17 3/6/16
f 8/18/17 7/16/19 4/8/18
f 7/16/19 5/11/9 2/4/11
f 10/22/14 12/26/21 15/34/20
f 12/26/21 11/24/23 16/36/22
f 11/24/23 9/19/10 14/32/24
f 26/58/6 28/62/26 31/70/25
f 28/62/26 27/60/28 32/72/27
f 27/60/28 25/56/13 30/68/8
f 18/40/3 20/44/30 23/52/29
f 20/44/30 19/42/32 24/54/31
f 19/42/32 17/37/5 22/50/7
f 2/5/11 9/20/10 10/23/14
f 9/20/10 11/25/23 10/23/14
f 11/25/23 12/27/21 10/23/14
f 10/23/14 25/57/13 18/41/3
f 25/57/13 27/61/28 26/59/6
f 27/61/28 28/63/26 26/59/6
f 26/59/6 17/38/5 18/41/3
f 17/38/5 19/43/32 18/41/3
f 19/43/32 20/45/30 18/41/3
f 18/41/3 1/3/2 10/23/14
f 1/3/2 3/7/16 2/5/11
f 3/7/16 4/9/18 2/5/11
f 25/57/13 26/59/6 18/41/3
