# Blender 5.0.1
# www.blender.org
mtllib pipes.mtl
o Cylinder
v 0.000000 -4.264859 -1.000000
v 0.000000 4.264859 -1.000000
v 0.195090 -4.264859 -0.980785
v 0.195090 4.264859 -0.980785
v 0.382683 -4.264859 -0.923880
v 0.382683 4.264859 -0.923880
v 0.555570 -4.264859 -0.831470
v 0.555570 4.264859 -0.831470
v 0.707107 -4.264859 -0.707107
v 0.707107 4.264859 -0.707107
v 0.831470 -4.264859 -0.555570
v 0.831470 4.264859 -0.555570
v 0.923880 -4.264859 -0.382683
v 0.923880 4.264859 -0.382683
v 0.980785 -4.264859 -0.195090
v 0.980785 4.264859 -0.195090
v 1.000000 -4.264859 0.000000
v 1.000000 4.264859 0.000000
v 0.980785 -4.264859 0.195090
v 0.980785 4.264859 0.195090
v 0.923880 -4.264859 0.382683
v 0.923880 4.264859 0.382683
v 0.831470 -4.264859 0.555570
v 0.831470 4.264859 0.555570
v 0.707107 -4.264859 0.707107
v 0.707107 4.264859 0.707107
v 0.555570 -4.264859 0.831470
v 0.555570 4.264859 0.831470
v 0.382683 -4.264859 0.923880
v 0.382683 4.264859 0.923880
v 0.195090 -4.264859 0.980785
v 0.195090 4.264859 0.980785
v 0.000000 -4.264859 1.000000
v 0.000000 4.264859 1.000000
v -0.195090 -4.264859 0.980785
v -0.195090 4.264859 0.980785
v -0.382683 -4.264859 0.923880
v -0.382683 4.264859 0.923880
v -0.555570 -4.264859 0.831470
v -0.555570 4.264859 0.831470
v -0.707107 -4.264859 0.707107
v -0.707107 4.264859 0.707107
v -0.831470 -4.264859 0.555570
v -0.831470 4.264859 0.555570
v -0.923880 -4.264859 0.382683
v -0.923880 4.264859 0.382683
v -0.980785 -4.264859 0.195090
v -0.980785 4.264859 0.195090
v -1.000000 -4.264859 0.000000
v -1.000000 4.264859 0.000000
v -0.980785 -4.264859 -0.195090
v -0.980785 4.264859 -0.195090
v -0.923880 -4.264859 -0.382683
v -0.923880 4.264859 -0.382683
v -0.831470 -4.264859 -0.555570
v -0.831470 4.264859 -0.555570
v -0.707107 -4.264859 -0.707107
v -0.707107 4.264859 -0.707107
v -0.555570 -4.264859 -0.831470
v -0.555570 4.264859 -0.831470
v -0.382683 -4.264859 -0.923880
v -0.382683 4.264859 -0.923880
v -0.195090 -4.264859 -0.980785
v -0.195090 4.264859 -0.980785
vn -0.0000 -0.0000 -1.0000
vn 0.1951 -0.0000 -0.9808
vn 0.3827 -0.0000 -0.9239
vn 0.5556 -0.0000 -0.8315
vn 0.7071 -0.0000 -0.7071
vn 0.8315 -0.0000 -0.5556
vn 0.9239 -0.0000 -0.3827
vn 0.9808 -0.0000 -0.1951
vn 1.0000 -0.0000 -0.0000
vn 0.9808 -0.0000 0.1951
vn 0.9239 -0.0000 0.3827
vn 0.8315 -0.0000 0.5556
vn 0.7071 -0.0000 0.7071
vn 0.5556 -0.0000 0.8315
vn 0.3827 -0.0000 0.9239
vn 0.1951 -0.0000 0.9808
vn -0.0000 -0.0000 1.0000
vn -0.1951 -0.0000 0.9808
vn -0.3827 -0.0000 0.9239
vn -0.5556 -0.0000 0.8315
vn -0.7071 -0.0000 0.7071
vn -0.8315 -0.0000 0.5556
vn -0.9239 -0.0000 0.3827
vn -0.9808 -0.0000 0.1951
vn -1.0000 -0.0000 -0.0000
vn -0.9808 -0.0000 -0.1951
vn -0.9239 -0.0000 -0.3827
vn -0.8315 -0.0000 -0.5556
vn -0.7071 -0.0000 -0.7071
vn -0.5556 -0.0000 -0.8315
vn -0.3827 -0.0000 -0.9239
vn -0.0000 1.0000 -0.0000
vn -0.1951 -0.0000 -0.9808
vn -0.0000 -1.0000 -0.0000
vt 1.000000 0.500000
vt 1.000000 1.000000
vt 0.968750 1.000000
vt 0.968750 0.500000
vt 0.937500 1.000000
vt 0.937500 0.500000
vt 0.906250 1.000000
vt 0.906250 0.500000
vt 0.875000 1.000000
vt 0.875000 0.500000
vt 0.843750 1.000000
vt 0.843750 0.500000
vt 0.812500 1.000000
vt 0.812500 0.500000
vt 0.781250 1.000000
vt 0.781250 0.500000
vt 0.750000 1.000000
vt 0.750000 0.500000
vt 0.718750 1.000000
vt 0.718750 0.500000
vt 0.687500 1.000000
vt 0.687500 0.500000
vt 0.656250 1.000000
vt 0.656250 0.500000
vt 0.625000 1.000000
vt 0.625000 0.500000
vt 0.593750 1.000000
vt 0.593750 0.500000
vt 0.562500 1.000000
vt 0.562500 0.500000
vt 0.531250 1.000000
vt 0.531250 0.500000
vt 0.500000 1.000000
vt 0.500000 0.500000
vt 0.468750 1.000000
vt 0.468750 0.500000
vt 0.437500 1.000000
vt 0.437500 0.500000
vt 0.406250 1.000000
vt 0.406250 0.500000
vt 0.375000 1.000000
vt 0.375000 0.500000
vt 0.343750 1.000000
vt 0.343750 0.500000
vt 0.312500 1.000000
vt 0.312500 0.500000
vt 0.281250 1.000000
vt 0.281250 0.500000
vt 0.250000 1.000000
vt 0.250000 0.500000
vt 0.218750 1.000000
vt 0.218750 0.500000
vt 0.187500 1.000000
vt 0.187500 0.500000
vt 0.156250 1.000000
vt 0.156250 0.500000
vt 0.125000 1.000000
vt 0.125000 0.500000
vt 0.093750 1.000000
vt 0.093750 0.500000
vt 0.062500 1.000000
vt 0.062500 0.500000
vt 0.296822 0.485388
vt 0.250000 0.490000
vt 0.203178 0.485388
vt 0.158156 0.471731
vt 0.116663 0.449553
vt 0.080294 0.419706
vt 0.050447 0.383337
vt 0.028269 0.341844
vt 0.014612 0.296822
vt 0.010000 0.250000
vt 0.014612 0.203178
vt 0.028269 0.158156
vt 0.050447 0.116663
vt 0.080294 0.080294
vt 0.116663 0.050447
vt 0.158156 0.028269
vt 0.203178 0.014612
vt 0.250000 0.010000
vt 0.296822 0.014612
vt 0.341844 0.028269
vt 0.383337 0.050447
vt 0.419706 0.080294
vt 0.449553 0.116663
vt 0.471731 0.158156
vt 0.485388 0.203178
vt 0.490000 0.250000
vt 0.485388 0.296822
vt 0.471731 0.341844
vt 0.449553 0.383337
vt 0.419706 0.419706
vt 0.383337 0.449553
vt 0.341844 0.471731
vt 0.031250 1.000000
vt 0.031250 0.500000
vt 0.000000 1.000000
vt 0.000000 0.500000
vt 0.750000 0.490000
vt 0.796822 0.485388
vt 0.841844 0.471731
vt 0.883337 0.449553
vt 0.919706 0.419706
vt 0.949553 0.383337
vt 0.971731 0.341844
vt 0.985388 0.296822
vt 0.990000 0.250000
vt 0.985388 0.203178
vt 0.971731 0.158156
vt 0.949553 0.116663
vt 0.919706 0.080294
vt 0.883337 0.050447
vt 0.841844 0.028269
vt 0.796822 0.014612
vt 0.750000 0.010000
vt 0.703178 0.014612
vt 0.658156 0.028269
vt 0.616663 0.050447
vt 0.580294 0.080294
vt 0.550447 0.116663
vt 0.528269 0.158156
vt 0.514612 0.203178
vt 0.510000 0.250000
vt 0.514612 0.296822
vt 0.528269 0.341844
vt 0.550447 0.383337
vt 0.580294 0.419706
vt 0.616663 0.449553
vt 0.658156 0.471731
vt 0.703178 0.485388
s 1
f 1/1/1 2/2/1 4/3/2 3/4/2
f 3/4/2 4/3/2 6/5/3 5/6/3
f 5/6/3 6/5/3 8/7/4 7/8/4
f 7/8/4 8/7/4 10/9/5 9/10/5
f 9/10/5 10/9/5 12/11/6 11/12/6
f 11/12/6 12/11/6 14/13/7 13/14/7
f 13/14/7 14/13/7 16/15/8 15/16/8
f 15/16/8 16/15/8 18/17/9 17/18/9
f 17/18/9 18/17/9 20/19/10 19/20/10
f 19/20/10 20/19/10 22/21/11 21/22/11
f 21/22/11 22/21/11 24/23/12 23/24/12
f 23/24/12 24/23/12 26/25/13 25/26/13
f 25/26/13 26/25/13 28/27/14 27/28/14
f 27/28/14 28/27/14 30/29/15 29/30/15
f 29/30/15 30/29/15 32/31/16 31/32/16
f 31/32/16 32/31/16 34/33/17 33/34/17
f 33/34/17 34/33/17 36/35/18 35/36/18
f 35/36/18 36/35/18 38/37/19 37/38/19
f 37/38/19 38/37/19 40/39/20 39/40/20
f 39/40/20 40/39/20 42/41/21 41/42/21
f 41/42/21 42/41/21 44/43/22 43/44/22
f 43/44/22 44/43/22 46/45/23 45/46/23
f 45/46/23 46/45/23 48/47/24 47/48/24
f 47/48/24 48/47/24 50/49/25 49/50/25
f 49/50/25 50/49/25 52/51/26 51/52/26
f 51/52/26 52/51/26 54/53/27 53/54/27
f 53/54/27 54/53/27 56/55/28 55/56/28
f 55/56/28 56/55/28 58/57/29 57/58/29
f 57/58/29 58/57/29 60/59/30 59/60/30
f 59/60/30 60/59/30 62/61/31 61/62/31
f 4/63/32 2/64/32 64/65/32 62/66/32 60/67/32 58/68/32 56/69/32 54/70/32 52/71/32 50/72/32 48/73/32 46/74/32 44/75/32 42/76/32 40/77/32 38/78/32 36/79/32 34/80/32 32/81/32 30/82/32 28/83/32 26/84/32 24/85/32 22/86/32 20/87/32 18/88/32 16/89/32 14/90/32 12/91/32 10/92/32 8/93/32 6/94/32
f 61/62/31 62/61/31 64/95/33 63/96/33
f 63/96/33 64/95/33 2/97/1 1/98/1
f 1/99/34 3/100/34 5/101/34 7/102/34 9/103/34 11/104/34 13/105/34 15/106/34 17/107/34 19/108/34 21/109/34 23/110/34 25/111/34 27/112/34 29/113/34 31/114/34 33/115/34 35/116/34 37/117/34 39/118/34 41/119/34 43/120/34 45/121/34 47/122/34 49/123/34 51/124/34 53/125/34 55/126/34 57/127/34 59/128/34 61/129/34 63/130/34
o Cylinder.001
v 0.000000 -4.444858 -1.238797
v 0.000000 -3.997011 -1.238797
v 0.241677 -4.444858 -1.214994
v 0.241677 -3.997011 -1.214994
v 0.474067 -4.444858 -1.144499
v 0.474067 -3.997011 -1.144499
v 0.688239 -4.444858 -1.030022
v 0.688239 -3.997011 -1.030022
v 0.875962 -4.444858 -0.875962
v 0.875962 -3.997011 -0.875962
v 1.030022 -4.444858 -0.688239
v 1.030022 -3.997011 -0.688239
v 1.144499 -4.444858 -0.474067
v 1.144499 -3.997011 -0.474067
v 1.214994 -4.444858 -0.241677
v 1.214994 -3.997011 -0.241677
v 1.238797 -4.444858 0.000000
v 1.238797 -3.997011 0.000000
v 1.214994 -4.444858 0.241677
v 1.214994 -3.997011 0.241677
v 1.144499 -4.444858 0.474067
v 1.144499 -3.997011 0.474067
v 1.030022 -4.444858 0.688239
v 1.030022 -3.997011 0.688239
v 0.875962 -4.444858 0.875962
v 0.875962 -3.997011 0.875962
v 0.688239 -4.444858 1.030022
v 0.688239 -3.997011 1.030022
v 0.474067 -4.444858 1.144499
v 0.474067 -3.997011 1.144499
v 0.241677 -4.444858 1.214994
v 0.241677 -3.997011 1.214994
v 0.000000 -4.444858 1.238797
v 0.000000 -3.997011 1.238797
v -0.241677 -4.444858 1.214994
v -0.241677 -3.997011 1.214994
v -0.474067 -4.444858 1.144499
v -0.474067 -3.997011 1.144499
v -0.688239 -4.444858 1.030022
v -0.688239 -3.997011 1.030022
v -0.875962 -4.444858 0.875962
v -0.875962 -3.997011 0.875962
v -1.030022 -4.444858 0.688239
v -1.030022 -3.997011 0.688239
v -1.144499 -4.444858 0.474067
v -1.144499 -3.997011 0.474067
v -1.214994 -4.444858 0.241677
v -1.214994 -3.997011 0.241677
v -1.238797 -4.444858 0.000000
v -1.238797 -3.997011 0.000000
v -1.214994 -4.444858 -0.241677
v -1.214994 -3.997011 -0.241677
v -1.144499 -4.444858 -0.474067
v -1.144499 -3.997011 -0.474067
v -1.030022 -4.444858 -0.688239
v -1.030022 -3.997011 -0.688239
v -0.875962 -4.444858 -0.875962
v -0.875962 -3.997011 -0.875962
v -0.688239 -4.444858 -1.030022
v -0.688239 -3.997011 -1.030022
v -0.474067 -4.444858 -1.144499
v -0.474067 -3.997011 -1.144499
v -0.241677 -4.444858 -1.214994
v -0.241677 -3.997011 -1.214994
vn -0.0000 -0.0000 -1.0000
vn 0.1951 -0.0000 -0.9808
vn 0.3827 -0.0000 -0.9239
vn 0.5556 -0.0000 -0.8315
vn 0.7071 -0.0000 -0.7071
vn 0.8315 -0.0000 -0.5556
vn 0.9239 -0.0000 -0.3827
vn 0.9808 -0.0000 -0.1951
vn 1.0000 -0.0000 -0.0000
vn 0.9808 -0.0000 0.1951
vn 0.9239 -0.0000 0.3827
vn 0.8315 -0.0000 0.5556
vn 0.7071 -0.0000 0.7071
vn 0.5556 -0.0000 0.8315
vn 0.3827 -0.0000 0.9239
vn 0.1951 -0.0000 0.9808
vn -0.0000 -0.0000 1.0000
vn -0.1951 -0.0000 0.9808
vn -0.3827 -0.0000 0.9239
vn -0.5556 -0.0000 0.8315
vn -0.7071 -0.0000 0.7071
vn -0.8315 -0.0000 0.5556
vn -0.9239 -0.0000 0.3827
vn -0.9808 -0.0000 0.1951
vn -1.0000 -0.0000 -0.0000
vn -0.9808 -0.0000 -0.1951
vn -0.9239 -0.0000 -0.3827
vn -0.8315 -0.0000 -0.5556
vn -0.7071 -0.0000 -0.7071
vn -0.5556 -0.0000 -0.8315
vn -0.3827 -0.0000 -0.9239
vn -0.0000 1.0000 -0.0000
vn -0.1951 -0.0000 -0.9808
vn -0.0000 -1.0000 -0.0000
vt 1.000000 0.500000
vt 1.000000 1.000000
vt 0.968750 1.000000
vt 0.968750 0.500000
vt 0.937500 1.000000
vt 0.937500 0.500000
vt 0.906250 1.000000
vt 0.906250 0.500000
vt 0.875000 1.000000
vt 0.875000 0.500000
vt 0.843750 1.000000
vt 0.843750 0.500000
vt 0.812500 1.000000
vt 0.812500 0.500000
vt 0.781250 1.000000
vt 0.781250 0.500000
vt 0.750000 1.000000
vt 0.750000 0.500000
vt 0.718750 1.000000
vt 0.718750 0.500000
vt 0.687500 1.000000
vt 0.687500 0.500000
vt 0.656250 1.000000
vt 0.656250 0.500000
vt 0.625000 1.000000
vt 0.625000 0.500000
vt 0.593750 1.000000
vt 0.593750 0.500000
vt 0.562500 1.000000
vt 0.562500 0.500000
vt 0.531250 1.000000
vt 0.531250 0.500000
vt 0.500000 1.000000
vt 0.500000 0.500000
vt 0.468750 1.000000
vt 0.468750 0.500000
vt 0.437500 1.000000
vt 0.437500 0.500000
vt 0.406250 1.000000
vt 0.406250 0.500000
vt 0.375000 1.000000
vt 0.375000 0.500000
vt 0.343750 1.000000
vt 0.343750 0.500000
vt 0.312500 1.000000
vt 0.312500 0.500000
vt 0.281250 1.000000
vt 0.281250 0.500000
vt 0.250000 1.000000
vt 0.250000 0.500000
vt 0.218750 1.000000
vt 0.218750 0.500000
vt 0.187500 1.000000
vt 0.187500 0.500000
vt 0.156250 1.000000
vt 0.156250 0.500000
vt 0.125000 1.000000
vt 0.125000 0.500000
vt 0.093750 1.000000
vt 0.093750 0.500000
vt 0.062500 1.000000
vt 0.062500 0.500000
vt 0.296822 0.485388
vt 0.250000 0.490000
vt 0.203178 0.485388
vt 0.158156 0.471731
vt 0.116663 0.449553
vt 0.080294 0.419706
vt 0.050447 0.383337
vt 0.028269 0.341844
vt 0.014612 0.296822
vt 0.010000 0.250000
vt 0.014612 0.203178
vt 0.028269 0.158156
vt 0.050447 0.116663
vt 0.080294 0.080294
vt 0.116663 0.050447
vt 0.158156 0.028269
vt 0.203178 0.014612
vt 0.250000 0.010000
vt 0.296822 0.014612
vt 0.341844 0.028269
vt 0.383337 0.050447
vt 0.419706 0.080294
vt 0.449553 0.116663
vt 0.471731 0.158156
vt 0.485388 0.203178
vt 0.490000 0.250000
vt 0.485388 0.296822
vt 0.471731 0.341844
vt 0.449553 0.383337
vt 0.419706 0.419706
vt 0.383337 0.449553
vt 0.341844 0.471731
vt 0.031250 1.000000
vt 0.031250 0.500000
vt 0.000000 1.000000
vt 0.000000 0.500000
vt 0.750000 0.490000
vt 0.796822 0.485388
vt 0.841844 0.471731
vt 0.883337 0.449553
vt 0.919706 0.419706
vt 0.949553 0.383337
vt 0.971731 0.341844
vt 0.985388 0.296822
vt 0.990000 0.250000
vt 0.985388 0.203178
vt 0.971731 0.158156
vt 0.949553 0.116663
vt 0.919706 0.080294
vt 0.883337 0.050447
vt 0.841844 0.028269
vt 0.796822 0.014612
vt 0.750000 0.010000
vt 0.703178 0.014612
vt 0.658156 0.028269
vt 0.616663 0.050447
vt 0.580294 0.080294
vt 0.550447 0.116663
vt 0.528269 0.158156
vt 0.514612 0.203178
vt 0.510000 0.250000
vt 0.514612 0.296822
vt 0.528269 0.341844
vt 0.550447 0.383337
vt 0.580294 0.419706
vt 0.616663 0.449553
vt 0.658156 0.471731
vt 0.703178 0.485388
s 1
f 65/131/35 66/132/35 68/133/36 67/134/36
f 67/134/36 68/133/36 70/135/37 69/136/37
f 69/136/37 70/135/37 72/137/38 71/138/38
f 71/138/38 72/137/38 74/139/39 73/140/39
f 73/140/39 74/139/39 76/141/40 75/142/40
f 75/142/40 76/141/40 78/143/41 77/144/41
f 77/144/41 78/143/41 80/145/42 79/146/42
f 79/146/42 80/145/42 82/147/43 81/148/43
f 81/148/43 82/147/43 84/149/44 83/150/44
f 83/150/44 84/149/44 86/151/45 85/152/45
f 85/152/45 86/151/45 88/153/46 87/154/46
f 87/154/46 88/153/46 90/155/47 89/156/47
f 89/156/47 90/155/47 92/157/48 91/158/48
f 91/158/48 92/157/48 94/159/49 93/160/49
f 93/160/49 94/159/49 96/161/50 95/162/50
f 95/162/50 96/161/50 98/163/51 97/164/51
f 97/164/51 98/163/51 100/165/52 99/166/52
f 99/166/52 100/165/52 102/167/53 101/168/53
f 101/168/53 102/167/53 104/169/54 103/170/54
f 103/170/54 104/169/54 106/171/55 105/172/55
f 105/172/55 106/171/55 108/173/56 107/174/56
f 107/174/56 108/173/56 110/175/57 109/176/57
f 109/176/57 110/175/57 112/177/58 111/178/58
f 111/178/58 112/177/58 114/179/59 113/180/59
f 113/180/59 114/179/59 116/181/60 115/182/60
f 115/182/60 116/181/60 118/183/61 117/184/61
f 117/184/61 118/183/61 120/185/62 119/186/62
f 119/186/62 120/185/62 122/187/63 121/188/63
f 121/188/63 122/187/63 124/189/64 123/190/64
f 123/190/64 124/189/64 126/191/65 125/192/65
f 68/193/66 66/194/66 128/195/66 126/196/66 124/197/66 122/198/66 120/199/66 118/200/66 116/201/66 114/202/66 112/203/66 110/204/66 108/205/66 106/206/66 104/207/66 102/208/66 100/209/66 98/210/66 96/211/66 94/212/66 92/213/66 90/214/66 88/215/66 86/216/66 84/217/66 82/218/66 80/219/66 78/220/66 76/221/66 74/222/66 72/223/66 70/224/66
f 125/192/65 126/191/65 128/225/67 127/226/67
f 127/226/67 128/225/67 66/227/35 65/228/35
f 65/229/68 67/230/68 69/231/68 71/232/68 73/233/68 75/234/68 77/235/68 79/236/68 81/237/68 83/238/68 85/239/68 87/240/68 89/241/68 91/242/68 93/243/68 95/244/68 97/245/68 99/246/68 101/247/68 103/248/68 105/249/68 107/250/68 109/251/68 111/252/68 113/253/68 115/254/68 117/255/68 119/256/68 121/257/68 123/258/68 125/259/68 127/260/68
o Cylinder.002
v 0.000000 3.960679 -1.238797
v 0.000000 4.408526 -1.238797
v 0.241677 3.960679 -1.214994
v 0.241677 4.408526 -1.214994
v 0.474067 3.960679 -1.144499
v 0.474067 4.408526 -1.144499
v 0.688239 3.960679 -1.030022
v 0.688239 4.408526 -1.030022
v 0.875962 3.960679 -0.875962
v 0.875962 4.408526 -0.875962
v 1.030022 3.960679 -0.688239
v 1.030022 4.408526 -0.688239
v 1.144499 3.960679 -0.474067
v 1.144499 4.408526 -0.474067
v 1.214994 3.960679 -0.241677
v 1.214994 4.408526 -0.241677
v 1.238797 3.960679 0.000000
v 1.238797 4.408526 0.000000
v 1.214994 3.960679 0.241677
v 1.214994 4.408526 0.241677
v 1.144499 3.960679 0.474067
v 1.144499 4.408526 0.474067
v 1.030022 3.960679 0.688239
v 1.030022 4.408526 0.688239
v 0.875962 3.960679 0.875962
v 0.875962 4.408526 0.875962
v 0.688239 3.960679 1.030022
v 0.688239 4.408526 1.030022
v 0.474067 3.960679 1.144499
v 0.474067 4.408526 1.144499
v 0.241677 3.960679 1.214994
v 0.241677 4.408526 1.214994
v 0.000000 3.960679 1.238797
v 0.000000 4.408526 1.238797
v -0.241677 3.960679 1.214994
v -0.241677 4.408526 1.214994
v -0.474067 3.960679 1.144499
v -0.474067 4.408526 1.144499
v -0.688239 3.960679 1.030022
v -0.688239 4.408526 1.030022
v -0.875962 3.960679 0.875962
v -0.875962 4.408526 0.875962
v -1.030022 3.960679 0.688239
v -1.030022 4.408526 0.688239
v -1.144499 3.960679 0.474067
v -1.144499 4.408526 0.474067
v -1.214994 3.960679 0.241677
v -1.214994 4.408526 0.241677
v -1.238797 3.960679 0.000000
v -1.238797 4.408526 0.000000
v -1.214994 3.960679 -0.241677
v -1.214994 4.408526 -0.241677
v -1.144499 3.960679 -0.474067
v -1.144499 4.408526 -0.474067
v -1.030022 3.960679 -0.688239
v -1.030022 4.408526 -0.688239
v -0.875962 3.960679 -0.875962
v -0.875962 4.408526 -0.875962
v -0.688239 3.960679 -1.030022
v -0.688239 4.408526 -1.030022
v -0.474067 3.960679 -1.144499
v -0.474067 4.408526 -1.144499
v -0.241677 3.960679 -1.214994
v -0.241677 4.408526 -1.214994
vn -0.0000 -0.0000 -1.0000
vn 0.1951 -0.0000 -0.9808
vn 0.3827 -0.0000 -0.9239
vn 0.5556 -0.0000 -0.8315
vn 0.7071 -0.0000 -0.7071
vn 0.8315 -0.0000 -0.5556
vn 0.9239 -0.0000 -0.3827
vn 0.9808 -0.0000 -0.1951
vn 1.0000 -0.0000 -0.0000
vn 0.9808 -0.0000 0.1951
vn 0.9239 -0.0000 0.3827
vn 0.8315 -0.0000 0.5556
vn 0.7071 -0.0000 0.7071
vn 0.5556 -0.0000 0.8315
vn 0.3827 -0.0000 0.9239
vn 0.1951 -0.0000 0.9808
vn -0.0000 -0.0000 1.0000
vn -0.1951 -0.0000 0.9808
vn -0.3827 -0.0000 0.9239
vn -0.5556 -0.0000 0.8315
vn -0.7071 -0.0000 0.7071
vn -0.8315 -0.0000 0.5556
vn -0.9239 -0.0000 0.3827
vn -0.9808 -0.0000 0.1951
vn -1.0000 -0.0000 -0.0000
vn -0.9808 -0.0000 -0.1951
vn -0.9239 -0.0000 -0.3827
vn -0.8315 -0.0000 -0.5556
vn -0.7071 -0.0000 -0.7071
vn -0.5556 -0.0000 -0.8315
vn -0.3827 -0.0000 -0.9239
vn -0.0000 1.0000 -0.0000
vn -0.1951 -0.0000 -0.9808
vn -0.0000 -1.0000 -0.0000
vt 1.000000 0.500000
vt 1.000000 1.000000
vt 0.968750 1.000000
vt 0.968750 0.500000
vt 0.937500 1.000000
vt 0.937500 0.500000
vt 0.906250 1.000000
vt 0.906250 0.500000
vt 0.875000 1.000000
vt 0.875000 0.500000
vt 0.843750 1.000000
vt 0.843750 0.500000
vt 0.812500 1.000000
vt 0.812500 0.500000
vt 0.781250 1.000000
vt 0.781250 0.500000
vt 0.750000 1.000000
vt 0.750000 0.500000
vt 0.718750 1.000000
vt 0.718750 0.500000
vt 0.687500 1.000000
vt 0.687500 0.500000
vt 0.656250 1.000000
vt 0.656250 0.500000
vt 0.625000 1.000000
vt 0.625000 0.500000
vt 0.593750 1.000000
vt 0.593750 0.500000
vt 0.562500 1.000000
vt 0.562500 0.500000
vt 0.531250 1.000000
vt 0.531250 0.500000
vt 0.500000 1.000000
vt 0.500000 0.500000
vt 0.468750 1.000000
vt 0.468750 0.500000
vt 0.437500 1.000000
vt 0.437500 0.500000
vt 0.406250 1.000000
vt 0.406250 0.500000
vt 0.375000 1.000000
vt 0.375000 0.500000
vt 0.343750 1.000000
vt 0.343750 0.500000
vt 0.312500 1.000000
vt 0.312500 0.500000
vt 0.281250 1.000000
vt 0.281250 0.500000
vt 0.250000 1.000000
vt 0.250000 0.500000
vt 0.218750 1.000000
vt 0.218750 0.500000
vt 0.187500 1.000000
vt 0.187500 0.500000
vt 0.156250 1.000000
vt 0.156250 0.500000
vt 0.125000 1.000000
vt 0.125000 0.500000
vt 0.093750 1.000000
vt 0.093750 0.500000
vt 0.062500 1.000000
vt 0.062500 0.500000
vt 0.296822 0.485388
vt 0.250000 0.490000
vt 0.203178 0.485388
vt 0.158156 0.471731
vt 0.116663 0.449553
vt 0.080294 0.419706
vt 0.050447 0.383337
vt 0.028269 0.341844
vt 0.014612 0.296822
vt 0.010000 0.250000
vt 0.014612 0.203178
vt 0.028269 0.158156
vt 0.050447 0.116663
vt 0.080294 0.080294
vt 0.116663 0.050447
vt 0.158156 0.028269
vt 0.203178 0.014612
vt 0.250000 0.010000
vt 0.296822 0.014612
vt 0.341844 0.028269
vt 0.383337 0.050447
vt 0.419706 0.080294
vt 0.449553 0.116663
vt 0.471731 0.158156
vt 0.485388 0.203178
vt 0.490000 0.250000
vt 0.485388 0.296822
vt 0.471731 0.341844
vt 0.449553 0.383337
vt 0.419706 0.419706
vt 0.383337 0.449553
vt 0.341844 0.471731
vt 0.031250 1.000000
vt 0.031250 0.500000
vt 0.000000 1.000000
vt 0.000000 0.500000
vt 0.750000 0.490000
vt 0.796822 0.485388
vt 0.841844 0.471731
vt 0.883337 0.449553
vt 0.919706 0.419706
vt 0.949553 0.383337
vt 0.971731 0.341844
vt 0.985388 0.296822
vt 0.990000 0.250000
vt 0.985388 0.203178
vt 0.971731 0.158156
vt 0.949553 0.116663
vt 0.919706 0.080294
vt 0.883337 0.050447
vt 0.841844 0.028269
vt 0.796822 0.014612
vt 0.750000 0.010000
vt 0.703178 0.014612
vt 0.658156 0.028269
vt 0.616663 0.050447
vt 0.580294 0.080294
vt 0.550447 0.116663
vt 0.528269 0.158156
vt 0.514612 0.203178
vt 0.510000 0.250000
vt 0.514612 0.296822
vt 0.528269 0.341844
vt 0.550447 0.383337
vt 0.580294 0.419706
vt 0.616663 0.449553
vt 0.658156 0.471731
vt 0.703178 0.485388
s 1
f 129/261/69 130/262/69 132/263/70 131/264/70
f 131/264/70 132/263/70 134/265/71 133/266/71
f 133/266/71 134/265/71 136/267/72 135/268/72
f 135/268/72 136/267/72 138/269/73 137/270/73
f 137/270/73 138/269/73 140/271/74 139/272/74
f 139/272/74 140/271/74 142/273/75 141/274/75
f 141/274/75 142/273/75 144/275/76 143/276/76
f 143/276/76 144/275/76 146/277/77 145/278/77
f 145/278/77 146/277/77 148/279/78 147/280/78
f 147/280/78 148/279/78 150/281/79 149/282/79
f 149/282/79 150/281/79 152/283/80 151/284/80
f 151/284/80 152/283/80 154/285/81 153/286/81
f 153/286/81 154/285/81 156/287/82 155/288/82
f 155/288/82 156/287/82 158/289/83 157/290/83
f 157/290/83 158/289/83 160/291/84 159/292/84
f 159/292/84 160/291/84 162/293/85 161/294/85
f 161/294/85 162/293/85 164/295/86 163/296/86
f 163/296/86 164/295/86 166/297/87 165/298/87
f 165/298/87 166/297/87 168/299/88 167/300/88
f 167/300/88 168/299/88 170/301/89 169/302/89
f 169/302/89 170/301/89 172/303/90 171/304/90
f 171/304/90 172/303/90 174/305/91 173/306/91
f 173/306/91 174/305/91 176/307/92 175/308/92
f 175/308/92 176/307/92 178/309/93 177/310/93
f 177/310/93 178/309/93 180/311/94 179/312/94
f 179/312/94 180/311/94 182/313/95 181/314/95
f 181/314/95 182/313/95 184/315/96 183/316/96
f 183/316/96 184/315/96 186/317/97 185/318/97
f 185/318/97 186/317/97 188/319/98 187/320/98
f 187/320/98 188/319/98 190/321/99 189/322/99
f 132/323/100 130/324/100 192/325/100 190/326/100 188/327/100 186/328/100 184/329/100 182/330/100 180/331/100 178/332/100 176/333/100 174/334/100 172/335/100 170/336/100 168/337/100 166/338/100 164/339/100 162/340/100 160/341/100 158/342/100 156/343/100 154/344/100 152/345/100 150/346/100 148/347/100 146/348/100 144/349/100 142/350/100 140/351/100 138/352/100 136/353/100 134/354/100
f 189/322/99 190/321/99 192/355/101 191/356/101
f 191/356/101 192/355/101 130/357/69 129/358/69
f 129/359/102 131/360/102 133/361/102 135/362/102 137/363/102 139/364/102 141/365/102 143/366/102 145/367/102 147/368/102 149/369/102 151/370/102 153/371/102 155/372/102 157/373/102 159/374/102 161/375/102 163/376/102 165/377/102 167/378/102 169/379/102 171/380/102 173/381/102 175/382/102 177/383/102 179/384/102 181/385/102 183/386/102 185/387/102 187/388/102 189/389/102 191/390/102
