# Blender 5.0.1
# www.blender.org
mtllib speaker.mtl
o Cube
v -1.000000 -1.000000 1.000000
v -1.000000 1.000000 1.000000
v -1.000000 -1.000000 -1.000000
v -1.000000 1.000000 -1.000000
v 1.000000 -1.000000 1.000000
v 1.000000 1.000000 1.000000
v 1.000000 -1.000000 -1.000000
v 1.000000 1.000000 -1.000000
vn -1.0000 -0.0000 -0.0000
vn -0.0000 -0.0000 -1.0000
vn 1.0000 -0.0000 -0.0000
vn -0.0000 -0.0000 1.0000
vn -0.0000 -1.0000 -0.0000
vn -0.0000 1.0000 -0.0000
vt 0.375000 0.000000
vt 0.625000 0.000000
vt 0.625000 0.250000
vt 0.375000 0.250000
vt 0.625000 0.500000
vt 0.375000 0.500000
vt 0.625000 0.750000
vt 0.375000 0.750000
vt 0.625000 1.000000
vt 0.375000 1.000000
vt 0.125000 0.500000
vt 0.125000 0.750000
vt 0.875000 0.500000
vt 0.875000 0.750000
s 0
f 1/1/1 2/2/1 4/3/1 3/4/1
f 3/4/2 4/3/2 8/5/2 7/6/2
f 7/6/3 8/5/3 6/7/3 5/8/3
f 5/8/4 6/7/4 2/9/4 1/10/4
f 3/11/5 7/6/5 5/8/5 1/12/5
f 8/5/6 4/13/6 2/14/6 6/7/6
o Cube.001
v -1.000000 0.970049 1.000000
v -2.499623 2.970049 2.499623
v -1.000000 0.970049 -1.000000
v -2.499623 2.970049 -2.499623
v 1.000000 0.970049 1.000000
v 2.499623 2.970049 2.499623
v 1.000000 0.970049 -1.000000
v 2.499623 2.970049 -2.499623
v -0.502292 3.159572 -0.502292
v -0.502292 3.159572 0.502292
v 0.502292 3.159572 -0.502292
v 0.502292 3.159572 0.502292
v -0.998835 0.979913 0.998835
v -2.494772 2.977324 2.494772
v -0.998835 0.979913 -0.998835
v -2.494772 2.977324 -2.494772
v 0.998835 0.979913 0.998835
v 2.494772 2.977324 2.494772
v 0.998835 0.979913 -0.998835
v 2.494772 2.977324 -2.494772
v -0.507398 3.166491 -0.507398
v -0.507398 3.166491 0.507398
v 0.507398 3.166491 -0.507398
v 0.507398 3.166491 0.507398
vn -0.8001 -0.5999 -0.0000
vn -0.0000 -0.5999 -0.8001
vn 0.8001 -0.5999 -0.0000
vn -0.0000 -0.5999 0.8001
vn -0.0000 -0.2217 0.9751
vn -0.0000 -1.0000 -0.0000
vn 0.9751 -0.2217 -0.0000
vn -0.9751 -0.2217 -0.0000
vn -0.0000 -0.2217 -0.9751
vn 0.8004 0.5995 -0.0000
vn -0.0000 0.5995 0.8004
vn -0.8004 0.5995 -0.0000
vn -0.0000 0.5995 -0.8004
vn -0.0000 0.2193 -0.9757
vn -0.0000 1.0000 -0.0000
vn -0.9757 0.2193 -0.0000
vn 0.9757 0.2193 -0.0000
vn -0.0000 0.2193 0.9757
vn -0.8320 0.5548 -0.0000
vn -0.0000 0.5548 -0.8320
vn 0.8320 0.5548 -0.0000
vn -0.0000 0.5548 0.8320
vt 0.375000 0.000000
vt 0.625000 0.000000
vt 0.625000 0.250000
vt 0.375000 0.250000
vt 0.625000 0.500000
vt 0.375000 0.500000
vt 0.625000 0.750000
vt 0.375000 0.750000
vt 0.625000 1.000000
vt 0.375000 1.000000
vt 0.125000 0.500000
vt 0.125000 0.750000
s 1
usemtl 
f 9/15/7 10/16/7 12/17/7 11/18/7
f 11/18/8 12/17/8 16/19/8 15/20/8
f 15/20/9 16/19/9 14/21/9 13/22/9
f 13/22/10 14/21/10 10/23/10 9/24/10
f 11/18/11 15/20/11 19/20/11 17/18/11
f 17/25/12 19/20/12 20/22/12 18/26/12
f 9/15/13 11/18/13 17/18/13 18/15/13
f 15/20/14 13/22/14 20/22/14 19/20/14
f 13/22/15 9/24/15 18/24/15 20/22/15
f 21/15/16 23/18/16 24/17/16 22/16/16
f 23/18/17 27/20/17 28/19/17 24/17/17
f 27/20/18 25/22/18 26/21/18 28/19/18
f 25/22/19 21/24/19 22/23/19 26/21/19
f 23/18/20 29/18/20 31/20/20 27/20/20
f 29/25/21 30/26/21 32/22/21 31/20/21
f 21/15/22 30/15/22 29/18/22 23/18/22
f 27/20/23 31/20/23 32/22/23 25/22/23
f 25/22/24 32/22/24 30/24/24 21/24/24
f 12/17/25 10/16/25 22/16/25 24/17/25
f 16/19/26 12/17/26 24/17/26 28/19/26
f 14/21/27 16/19/27 28/19/27 26/21/27
f 10/23/28 14/21/28 26/21/28 22/23/28
